<?xml version="1.0" encoding="utf-8" standalone="no"?>
<!DOCTYPE svg PUBLIC "-//W3C//DTD SVG 1.1//EN"
  "http://www.w3.org/Graphics/SVG/1.1/DTD/svg11.dtd">
<!-- Created with matplotlib (https://matplotlib.org/) -->
<svg height="432pt" version="1.1" viewBox="0 0 576 432" width="576pt" xmlns="http://www.w3.org/2000/svg" xmlns:xlink="http://www.w3.org/1999/xlink">
 <defs>
  <style type="text/css">
*{stroke-linecap:butt;stroke-linejoin:round;white-space:pre;}
  </style>
 </defs>
 <g id="figure_1">
  <g id="patch_1">
   <path d="M 0 432 
L 576 432 
L 576 0 
L 0 0 
z
" style="fill:#ffffff;"/>
  </g>
  <g id="axes_1">
   <g id="patch_2">
    <path d="M 316.8 385.74 
L 549.765 385.74 
L 549.765 32.4 
L 316.8 32.4 
z
" style="fill:#ffffff;"/>
   </g>
   <g id="matplotlib.axis_1">
    <g id="xtick_1">
     <g id="line2d_1">
      <path clip-path="url(#pfb2a15d8b4)" d="M 316.8 385.74 
L 316.8 32.4 
" style="fill:none;stroke:#b2b2b2;stroke-linecap:square;stroke-width:0.5;"/>
     </g>
     <g id="line2d_2"/>
     <g id="line2d_3"/>
     <g id="text_1">
      <!-- 0 -->
      <defs>
       <path d="M 51.703125 34.421875 
Q 51.703125 24.515625 49.828125 17.75 
Q 47.953125 10.984375 44.703125 6.8125 
Q 41.453125 2.640625 37.0625 0.828125 
Q 32.671875 -0.984375 27.6875 -0.984375 
Q 22.65625 -0.984375 18.3125 0.828125 
Q 13.96875 2.640625 10.765625 6.78125 
Q 7.5625 10.9375 5.734375 17.703125 
Q 3.90625 24.46875 3.90625 34.421875 
Q 3.90625 44.828125 5.734375 51.640625 
Q 7.5625 58.453125 10.78125 62.5 
Q 14.015625 66.546875 18.40625 68.1875 
Q 22.796875 69.828125 27.984375 69.828125 
Q 32.90625 69.828125 37.21875 68.1875 
Q 41.546875 66.546875 44.765625 62.5 
Q 48 58.453125 49.84375 51.640625 
Q 51.703125 44.828125 51.703125 34.421875 
z
M 42.78125 34.421875 
Q 42.78125 42.625 41.796875 48.0625 
Q 40.828125 53.515625 38.921875 56.765625 
Q 37.015625 60.015625 34.25 61.359375 
Q 31.5 62.703125 27.984375 62.703125 
Q 24.265625 62.703125 21.4375 61.328125 
Q 18.609375 59.96875 16.671875 56.71875 
Q 14.75 53.46875 13.765625 48.015625 
Q 12.796875 42.578125 12.796875 34.421875 
Q 12.796875 26.515625 13.796875 21.09375 
Q 14.796875 15.671875 16.71875 12.375 
Q 18.65625 9.078125 21.4375 7.640625 
Q 24.21875 6.203125 27.78125 6.203125 
Q 31.25 6.203125 34.03125 7.640625 
Q 36.8125 9.078125 38.734375 12.375 
Q 40.671875 15.671875 41.71875 21.09375 
Q 42.78125 26.515625 42.78125 34.421875 
z
" id="LiberationSans-48"/>
      </defs>
      <g transform="translate(313.463437 398.43625)scale(0.12 -0.12)">
       <use xlink:href="#LiberationSans-48"/>
      </g>
     </g>
    </g>
    <g id="xtick_2">
     <g id="line2d_4">
      <path clip-path="url(#pfb2a15d8b4)" d="M 375.04125 385.74 
L 375.04125 32.4 
" style="fill:none;stroke:#b2b2b2;stroke-linecap:square;stroke-width:0.5;"/>
     </g>
     <g id="line2d_5"/>
     <g id="line2d_6"/>
     <g id="text_2">
      <!-- 500 -->
      <defs>
       <path d="M 51.421875 22.40625 
Q 51.421875 17.234375 49.859375 12.9375 
Q 48.296875 8.640625 45.21875 5.53125 
Q 42.140625 2.4375 37.578125 0.71875 
Q 33.015625 -0.984375 27 -0.984375 
Q 21.578125 -0.984375 17.546875 0.28125 
Q 13.53125 1.5625 10.734375 3.78125 
Q 7.953125 6 6.3125 8.984375 
Q 4.6875 11.96875 4 15.375 
L 12.890625 16.40625 
Q 13.421875 14.453125 14.390625 12.625 
Q 15.375 10.796875 17.0625 9.34375 
Q 18.75 7.90625 21.21875 7.046875 
Q 23.6875 6.203125 27.203125 6.203125 
Q 30.609375 6.203125 33.390625 7.25 
Q 36.1875 8.296875 38.15625 10.34375 
Q 40.140625 12.40625 41.203125 15.375 
Q 42.28125 18.359375 42.28125 22.21875 
Q 42.28125 25.390625 41.25 28.046875 
Q 40.234375 30.71875 38.328125 32.640625 
Q 36.421875 34.578125 33.65625 35.640625 
Q 30.90625 36.71875 27.390625 36.71875 
Q 25.203125 36.71875 23.34375 36.328125 
Q 21.484375 35.9375 19.890625 35.25 
Q 18.3125 34.578125 17.015625 33.671875 
Q 15.71875 32.765625 14.59375 31.78125 
L 6 31.78125 
L 8.296875 68.796875 
L 47.40625 68.796875 
L 47.40625 61.328125 
L 16.3125 61.328125 
L 14.984375 39.5 
Q 17.328125 41.3125 20.84375 42.59375 
Q 24.359375 43.890625 29.203125 43.890625 
Q 34.328125 43.890625 38.421875 42.328125 
Q 42.53125 40.765625 45.40625 37.90625 
Q 48.296875 35.0625 49.859375 31.109375 
Q 51.421875 27.15625 51.421875 22.40625 
z
" id="LiberationSans-53"/>
      </defs>
      <g transform="translate(365.031563 398.43625)scale(0.12 -0.12)">
       <use xlink:href="#LiberationSans-53"/>
       <use x="55.615234" xlink:href="#LiberationSans-48"/>
       <use x="111.230469" xlink:href="#LiberationSans-48"/>
      </g>
     </g>
    </g>
    <g id="xtick_3">
     <g id="line2d_7">
      <path clip-path="url(#pfb2a15d8b4)" d="M 433.2825 385.74 
L 433.2825 32.4 
" style="fill:none;stroke:#b2b2b2;stroke-linecap:square;stroke-width:0.5;"/>
     </g>
     <g id="line2d_8"/>
     <g id="line2d_9"/>
     <g id="text_3">
      <!-- 1000 -->
      <defs>
       <path d="M 7.625 0 
L 7.625 7.46875 
L 25.140625 7.46875 
L 25.140625 60.40625 
L 9.625 49.3125 
L 9.625 57.625 
L 25.875 68.796875 
L 33.984375 68.796875 
L 33.984375 7.46875 
L 50.734375 7.46875 
L 50.734375 0 
z
" id="LiberationSans-49"/>
      </defs>
      <g transform="translate(419.93625 398.43625)scale(0.12 -0.12)">
       <use xlink:href="#LiberationSans-49"/>
       <use x="55.615234" xlink:href="#LiberationSans-48"/>
       <use x="111.230469" xlink:href="#LiberationSans-48"/>
       <use x="166.845703" xlink:href="#LiberationSans-48"/>
      </g>
     </g>
    </g>
    <g id="xtick_4">
     <g id="line2d_10">
      <path clip-path="url(#pfb2a15d8b4)" d="M 491.52375 385.74 
L 491.52375 32.4 
" style="fill:none;stroke:#b2b2b2;stroke-linecap:square;stroke-width:0.5;"/>
     </g>
     <g id="line2d_11"/>
     <g id="line2d_12"/>
     <g id="text_4">
      <!-- 1500 -->
      <g transform="translate(478.1775 398.43625)scale(0.12 -0.12)">
       <use xlink:href="#LiberationSans-49"/>
       <use x="55.615234" xlink:href="#LiberationSans-53"/>
       <use x="111.230469" xlink:href="#LiberationSans-48"/>
       <use x="166.845703" xlink:href="#LiberationSans-48"/>
      </g>
     </g>
    </g>
    <g id="xtick_5">
     <g id="line2d_13">
      <path clip-path="url(#pfb2a15d8b4)" d="M 549.765 385.74 
L 549.765 32.4 
" style="fill:none;stroke:#b2b2b2;stroke-linecap:square;stroke-width:0.5;"/>
     </g>
     <g id="line2d_14"/>
     <g id="line2d_15"/>
     <g id="text_5">
      <!-- 2000 -->
      <defs>
       <path d="M 5.03125 0 
L 5.03125 6.203125 
Q 7.515625 11.921875 11.109375 16.28125 
Q 14.703125 20.65625 18.65625 24.1875 
Q 22.609375 27.734375 26.484375 30.765625 
Q 30.375 33.796875 33.5 36.8125 
Q 36.625 39.84375 38.546875 43.15625 
Q 40.484375 46.484375 40.484375 50.6875 
Q 40.484375 53.609375 39.59375 55.828125 
Q 38.71875 58.0625 37.0625 59.5625 
Q 35.40625 61.078125 33.078125 61.828125 
Q 30.765625 62.59375 27.9375 62.59375 
Q 25.296875 62.59375 22.96875 61.859375 
Q 20.65625 61.140625 18.84375 59.671875 
Q 17.046875 58.203125 15.890625 56.03125 
Q 14.75 53.859375 14.40625 50.984375 
L 5.421875 51.8125 
Q 5.859375 55.515625 7.46875 58.78125 
Q 9.078125 62.0625 11.90625 64.53125 
Q 14.75 67 18.71875 68.40625 
Q 22.703125 69.828125 27.9375 69.828125 
Q 33.0625 69.828125 37.0625 68.609375 
Q 41.0625 67.390625 43.8125 64.984375 
Q 46.578125 62.59375 48.046875 59.078125 
Q 49.515625 55.5625 49.515625 50.984375 
Q 49.515625 47.515625 48.265625 44.390625 
Q 47.015625 41.265625 44.9375 38.421875 
Q 42.875 35.59375 40.140625 32.953125 
Q 37.40625 30.328125 34.421875 27.8125 
Q 31.453125 25.296875 28.421875 22.828125 
Q 25.390625 20.359375 22.71875 17.859375 
Q 20.0625 15.375 17.96875 12.8125 
Q 15.875 10.25 14.703125 7.46875 
L 50.59375 7.46875 
L 50.59375 0 
z
" id="LiberationSans-50"/>
      </defs>
      <g transform="translate(536.41875 398.43625)scale(0.12 -0.12)">
       <use xlink:href="#LiberationSans-50"/>
       <use x="55.615234" xlink:href="#LiberationSans-48"/>
       <use x="111.230469" xlink:href="#LiberationSans-48"/>
       <use x="166.845703" xlink:href="#LiberationSans-48"/>
      </g>
     </g>
    </g>
    <g id="text_6">
     <!-- Number of complaints -->
     <defs>
      <path d="M 52.828125 0 
L 16.015625 58.59375 
Q 16.109375 56.203125 16.265625 53.859375 
Q 16.359375 51.859375 16.421875 49.625 
Q 16.5 47.40625 16.5 45.703125 
L 16.5 0 
L 8.203125 0 
L 8.203125 68.796875 
L 19.046875 68.796875 
L 56.25 9.8125 
Q 56.109375 12.203125 55.953125 14.59375 
Q 55.859375 16.65625 55.765625 19.0625 
Q 55.671875 21.484375 55.671875 23.6875 
L 55.671875 68.796875 
L 64.0625 68.796875 
L 64.0625 0 
z
" id="LiberationSans-78"/>
      <path d="M 15.328125 52.828125 
L 15.328125 19.34375 
Q 15.328125 15.484375 15.890625 12.890625 
Q 16.453125 10.296875 17.71875 8.703125 
Q 19 7.125 21.0625 6.46875 
Q 23.140625 5.8125 26.21875 5.8125 
Q 29.34375 5.8125 31.859375 6.90625 
Q 34.375 8.015625 36.15625 10.078125 
Q 37.9375 12.15625 38.90625 15.203125 
Q 39.890625 18.265625 39.890625 22.21875 
L 39.890625 52.828125 
L 48.6875 52.828125 
L 48.6875 11.28125 
Q 48.6875 9.625 48.703125 7.78125 
Q 48.734375 5.953125 48.78125 4.3125 
Q 48.828125 2.6875 48.875 1.515625 
Q 48.921875 0.34375 48.96875 0 
L 40.671875 0 
Q 40.625 0.25 40.578125 1.3125 
Q 40.53125 2.390625 40.453125 3.78125 
Q 40.375 5.171875 40.328125 6.609375 
Q 40.28125 8.0625 40.28125 9.03125 
L 40.140625 9.03125 
Q 38.875 6.734375 37.359375 4.875 
Q 35.84375 3.03125 33.84375 1.734375 
Q 31.84375 0.4375 29.25 -0.265625 
Q 26.65625 -0.984375 23.25 -0.984375 
Q 18.84375 -0.984375 15.671875 0.09375 
Q 12.5 1.171875 10.453125 3.421875 
Q 8.40625 5.671875 7.453125 9.1875 
Q 6.5 12.703125 6.5 17.625 
L 6.5 52.828125 
z
" id="LiberationSans-117"/>
      <path d="M 37.5 0 
L 37.5 33.5 
Q 37.5 37.359375 37.015625 39.9375 
Q 36.53125 42.53125 35.375 44.109375 
Q 34.234375 45.703125 32.375 46.359375 
Q 30.515625 47.015625 27.828125 47.015625 
Q 25.046875 47.015625 22.796875 45.921875 
Q 20.5625 44.828125 18.96875 42.75 
Q 17.390625 40.671875 16.53125 37.625 
Q 15.671875 34.578125 15.671875 30.609375 
L 15.671875 0 
L 6.9375 0 
L 6.9375 41.546875 
Q 6.9375 43.21875 6.90625 45.046875 
Q 6.890625 46.875 6.828125 48.5 
Q 6.78125 50.140625 6.734375 51.3125 
Q 6.6875 52.484375 6.640625 52.828125 
L 14.9375 52.828125 
Q 14.984375 52.59375 15.03125 51.515625 
Q 15.09375 50.4375 15.15625 49.046875 
Q 15.234375 47.65625 15.28125 46.21875 
Q 15.328125 44.78125 15.328125 43.796875 
L 15.484375 43.796875 
Q 16.65625 46.09375 18.015625 47.953125 
Q 19.390625 49.8125 21.21875 51.09375 
Q 23.046875 52.390625 25.40625 53.09375 
Q 27.78125 53.8125 30.90625 53.8125 
Q 36.921875 53.8125 40.40625 51.421875 
Q 43.890625 49.03125 45.265625 43.796875 
L 45.40625 43.796875 
Q 46.578125 46.09375 48.046875 47.953125 
Q 49.515625 49.8125 51.46875 51.09375 
Q 53.421875 52.390625 55.859375 53.09375 
Q 58.296875 53.8125 61.421875 53.8125 
Q 65.4375 53.8125 68.328125 52.734375 
Q 71.234375 51.65625 73.09375 49.40625 
Q 74.953125 47.171875 75.828125 43.625 
Q 76.703125 40.09375 76.703125 35.203125 
L 76.703125 0 
L 68.015625 0 
L 68.015625 33.5 
Q 68.015625 37.359375 67.53125 39.9375 
Q 67.046875 42.53125 65.890625 44.109375 
Q 64.75 45.703125 62.890625 46.359375 
Q 61.03125 47.015625 58.34375 47.015625 
Q 55.5625 47.015625 53.3125 45.96875 
Q 51.078125 44.921875 49.484375 42.875 
Q 47.90625 40.828125 47.046875 37.75 
Q 46.1875 34.671875 46.1875 30.609375 
L 46.1875 0 
z
" id="LiberationSans-109"/>
      <path d="M 51.421875 26.65625 
Q 51.421875 -0.984375 31.984375 -0.984375 
Q 25.984375 -0.984375 22 1.1875 
Q 18.015625 3.375 15.53125 8.203125 
L 15.4375 8.203125 
Q 15.4375 6.9375 15.359375 5.5625 
Q 15.28125 4.203125 15.203125 3.03125 
Q 15.140625 1.859375 15.0625 1.03125 
Q 14.984375 0.203125 14.9375 0 
L 6.453125 0 
Q 6.5 0.4375 6.546875 1.484375 
Q 6.59375 2.546875 6.640625 4 
Q 6.6875 5.46875 6.703125 7.21875 
Q 6.734375 8.984375 6.734375 10.890625 
L 6.734375 72.46875 
L 15.53125 72.46875 
L 15.53125 51.8125 
Q 15.53125 50.34375 15.5 49 
Q 15.484375 47.65625 15.4375 46.625 
Q 15.375 45.40625 15.328125 44.34375 
L 15.53125 44.34375 
Q 17.96875 49.421875 22 51.609375 
Q 26.03125 53.8125 31.984375 53.8125 
Q 42 53.8125 46.703125 47.0625 
Q 51.421875 40.328125 51.421875 26.65625 
z
M 42.1875 26.375 
Q 42.1875 31.84375 41.5 35.75 
Q 40.828125 39.65625 39.3125 42.15625 
Q 37.796875 44.671875 35.453125 45.84375 
Q 33.109375 47.015625 29.734375 47.015625 
Q 26.265625 47.015625 23.609375 45.890625 
Q 20.953125 44.78125 19.171875 42.28125 
Q 17.390625 39.796875 16.453125 35.734375 
Q 15.53125 31.6875 15.53125 25.828125 
Q 15.53125 20.171875 16.453125 16.3125 
Q 17.390625 12.453125 19.171875 10.03125 
Q 20.953125 7.625 23.578125 6.5625 
Q 26.21875 5.515625 29.640625 5.515625 
Q 32.859375 5.515625 35.203125 6.640625 
Q 37.546875 7.765625 39.109375 10.25 
Q 40.671875 12.75 41.421875 16.71875 
Q 42.1875 20.703125 42.1875 26.375 
z
" id="LiberationSans-98"/>
      <path d="M 13.484375 24.5625 
Q 13.484375 20.40625 14.328125 16.90625 
Q 15.1875 13.421875 16.96875 10.90625 
Q 18.75 8.40625 21.53125 7 
Q 24.3125 5.609375 28.21875 5.609375 
Q 33.9375 5.609375 37.375 7.90625 
Q 40.828125 10.203125 42.046875 13.71875 
L 49.75 11.53125 
Q 48.921875 9.328125 47.4375 7.109375 
Q 45.953125 4.890625 43.453125 3.09375 
Q 40.96875 1.3125 37.234375 0.15625 
Q 33.5 -0.984375 28.21875 -0.984375 
Q 16.5 -0.984375 10.375 6 
Q 4.25 12.984375 4.25 26.765625 
Q 4.25 34.1875 6.09375 39.328125 
Q 7.953125 44.484375 11.171875 47.703125 
Q 14.40625 50.921875 18.703125 52.359375 
Q 23 53.8125 27.875 53.8125 
Q 34.515625 53.8125 38.984375 51.65625 
Q 43.453125 49.515625 46.15625 45.71875 
Q 48.875 41.9375 50.015625 36.8125 
Q 51.171875 31.6875 51.171875 25.734375 
L 51.171875 24.5625 
z
M 42.09375 31.296875 
Q 41.359375 39.65625 37.84375 43.484375 
Q 34.328125 47.3125 27.734375 47.3125 
Q 25.53125 47.3125 23.109375 46.609375 
Q 20.703125 45.90625 18.65625 44.09375 
Q 16.609375 42.28125 15.1875 39.171875 
Q 13.765625 36.078125 13.578125 31.296875 
z
" id="LiberationSans-101"/>
      <path d="M 6.9375 0 
L 6.9375 40.53125 
Q 6.9375 42.1875 6.90625 43.921875 
Q 6.890625 45.65625 6.828125 47.265625 
Q 6.78125 48.875 6.734375 50.28125 
Q 6.6875 51.703125 6.640625 52.828125 
L 14.9375 52.828125 
Q 14.984375 51.703125 15.0625 50.265625 
Q 15.140625 48.828125 15.203125 47.3125 
Q 15.28125 45.796875 15.296875 44.40625 
Q 15.328125 43.015625 15.328125 42.046875 
L 15.53125 42.046875 
Q 16.453125 45.0625 17.5 47.28125 
Q 18.5625 49.515625 19.96875 50.953125 
Q 21.390625 52.390625 23.34375 53.09375 
Q 25.296875 53.8125 28.078125 53.8125 
Q 29.15625 53.8125 30.125 53.640625 
Q 31.109375 53.46875 31.640625 53.328125 
L 31.640625 45.265625 
Q 30.765625 45.515625 29.59375 45.625 
Q 28.421875 45.75 26.953125 45.75 
Q 23.921875 45.75 21.796875 44.375 
Q 19.671875 43.015625 18.328125 40.59375 
Q 17 38.1875 16.359375 34.84375 
Q 15.71875 31.5 15.71875 27.546875 
L 15.71875 0 
z
" id="LiberationSans-114"/>
      <path id="LiberationSans-32"/>
      <path d="M 51.421875 26.46875 
Q 51.421875 12.59375 45.3125 5.796875 
Q 39.203125 -0.984375 27.59375 -0.984375 
Q 22.078125 -0.984375 17.71875 0.671875 
Q 13.375 2.34375 10.375 5.765625 
Q 7.375 9.1875 5.78125 14.328125 
Q 4.203125 19.484375 4.203125 26.46875 
Q 4.203125 53.8125 27.875 53.8125 
Q 34.03125 53.8125 38.5 52.09375 
Q 42.96875 50.390625 45.828125 46.96875 
Q 48.6875 43.5625 50.046875 38.421875 
Q 51.421875 33.296875 51.421875 26.46875 
z
M 42.1875 26.46875 
Q 42.1875 32.625 41.234375 36.625 
Q 40.28125 40.625 38.453125 43.015625 
Q 36.625 45.40625 33.984375 46.359375 
Q 31.34375 47.3125 28.03125 47.3125 
Q 24.65625 47.3125 21.9375 46.3125 
Q 19.234375 45.3125 17.328125 42.890625 
Q 15.4375 40.484375 14.421875 36.46875 
Q 13.421875 32.46875 13.421875 26.46875 
Q 13.421875 20.3125 14.5 16.28125 
Q 15.578125 12.25 17.453125 9.859375 
Q 19.34375 7.46875 21.90625 6.484375 
Q 24.46875 5.515625 27.484375 5.515625 
Q 30.859375 5.515625 33.59375 6.46875 
Q 36.328125 7.421875 38.234375 9.8125 
Q 40.140625 12.203125 41.15625 16.25 
Q 42.1875 20.3125 42.1875 26.46875 
z
" id="LiberationSans-111"/>
      <path d="M 17.625 46.4375 
L 17.625 0 
L 8.84375 0 
L 8.84375 46.4375 
L 1.421875 46.4375 
L 1.421875 52.828125 
L 8.84375 52.828125 
L 8.84375 58.796875 
Q 8.84375 61.671875 9.375 64.140625 
Q 9.90625 66.609375 11.34375 68.4375 
Q 12.796875 70.265625 15.28125 71.3125 
Q 17.78125 72.359375 21.734375 72.359375 
Q 23.296875 72.359375 24.96875 72.21875 
Q 26.65625 72.078125 27.9375 71.78125 
L 27.9375 65.09375 
Q 27.09375 65.234375 26 65.359375 
Q 24.90625 65.484375 24.03125 65.484375 
Q 22.078125 65.484375 20.828125 64.9375 
Q 19.578125 64.40625 18.875 63.40625 
Q 18.171875 62.40625 17.890625 60.9375 
Q 17.625 59.46875 17.625 57.5625 
L 17.625 52.828125 
L 27.9375 52.828125 
L 27.9375 46.4375 
z
" id="LiberationSans-102"/>
      <path d="M 13.421875 26.65625 
Q 13.421875 22.125 14.078125 18.3125 
Q 14.75 14.5 16.3125 11.734375 
Q 17.875 8.984375 20.4375 7.46875 
Q 23 5.953125 26.765625 5.953125 
Q 31.453125 5.953125 34.59375 8.484375 
Q 37.75 11.03125 38.484375 16.3125 
L 47.359375 15.71875 
Q 46.921875 12.453125 45.453125 9.421875 
Q 44 6.390625 41.484375 4.09375 
Q 38.96875 1.8125 35.34375 0.40625 
Q 31.734375 -0.984375 27 -0.984375 
Q 20.796875 -0.984375 16.453125 1.109375 
Q 12.109375 3.21875 9.390625 6.90625 
Q 6.6875 10.59375 5.46875 15.59375 
Q 4.25 20.609375 4.25 26.46875 
Q 4.25 31.78125 5.125 35.859375 
Q 6 39.9375 7.59375 42.984375 
Q 9.1875 46.046875 11.328125 48.125 
Q 13.484375 50.203125 15.984375 51.4375 
Q 18.5 52.6875 21.28125 53.25 
Q 24.078125 53.8125 26.90625 53.8125 
Q 31.34375 53.8125 34.8125 52.59375 
Q 38.28125 51.375 40.796875 49.25 
Q 43.3125 47.125 44.875 44.234375 
Q 46.4375 41.359375 47.078125 38.03125 
L 38.03125 37.359375 
Q 37.359375 41.75 34.5625 44.328125 
Q 31.78125 46.921875 26.65625 46.921875 
Q 22.90625 46.921875 20.390625 45.671875 
Q 17.875 44.4375 16.3125 41.921875 
Q 14.75 39.40625 14.078125 35.59375 
Q 13.421875 31.78125 13.421875 26.65625 
z
" id="LiberationSans-99"/>
      <path d="M 51.421875 26.65625 
Q 51.421875 20.65625 50.4375 15.578125 
Q 49.46875 10.5 47.1875 6.828125 
Q 44.921875 3.171875 41.1875 1.09375 
Q 37.453125 -0.984375 31.984375 -0.984375 
Q 26.3125 -0.984375 22.0625 1.171875 
Q 17.828125 3.328125 15.578125 8.203125 
L 15.328125 8.203125 
Q 15.375 8.109375 15.40625 7.328125 
Q 15.4375 6.546875 15.453125 5.375 
Q 15.484375 4.203125 15.5 2.75 
Q 15.53125 1.3125 15.53125 -0.09375 
L 15.53125 -20.75 
L 6.734375 -20.75 
L 6.734375 42.046875 
Q 6.734375 43.953125 6.703125 45.703125 
Q 6.6875 47.46875 6.640625 48.90625 
Q 6.59375 50.34375 6.546875 51.359375 
Q 6.5 52.390625 6.453125 52.828125 
L 14.9375 52.828125 
Q 14.984375 52.6875 15.0625 51.796875 
Q 15.140625 50.921875 15.203125 49.671875 
Q 15.28125 48.4375 15.359375 47.015625 
Q 15.4375 45.609375 15.4375 44.34375 
L 15.625 44.34375 
Q 16.84375 46.875 18.40625 48.65625 
Q 19.96875 50.4375 21.96875 51.578125 
Q 23.96875 52.734375 26.4375 53.25 
Q 28.90625 53.765625 31.984375 53.765625 
Q 37.453125 53.765625 41.1875 51.8125 
Q 44.921875 49.859375 47.1875 46.3125 
Q 49.46875 42.78125 50.4375 37.765625 
Q 51.421875 32.765625 51.421875 26.65625 
z
M 42.1875 26.46875 
Q 42.1875 31.34375 41.59375 35.15625 
Q 41.015625 38.96875 39.578125 41.59375 
Q 38.140625 44.234375 35.734375 45.59375 
Q 33.34375 46.96875 29.734375 46.96875 
Q 26.8125 46.96875 24.21875 46.140625 
Q 21.625 45.3125 19.703125 42.96875 
Q 17.78125 40.625 16.65625 36.5 
Q 15.53125 32.375 15.53125 25.78125 
Q 15.53125 20.171875 16.453125 16.28125 
Q 17.390625 12.40625 19.171875 10.015625 
Q 20.953125 7.625 23.578125 6.5625 
Q 26.21875 5.515625 29.640625 5.515625 
Q 33.296875 5.515625 35.71875 6.921875 
Q 38.140625 8.34375 39.578125 11.03125 
Q 41.015625 13.71875 41.59375 17.59375 
Q 42.1875 21.484375 42.1875 26.46875 
z
" id="LiberationSans-112"/>
      <path d="M 6.734375 0 
L 6.734375 72.46875 
L 15.53125 72.46875 
L 15.53125 0 
z
" id="LiberationSans-108"/>
      <path d="M 20.21875 -0.984375 
Q 12.25 -0.984375 8.25 3.21875 
Q 4.25 7.421875 4.25 14.75 
Q 4.25 19.96875 6.21875 23.3125 
Q 8.203125 26.65625 11.390625 28.5625 
Q 14.59375 30.46875 18.6875 31.203125 
Q 22.796875 31.9375 27.046875 32.03125 
L 38.921875 32.234375 
L 38.921875 35.109375 
Q 38.921875 38.375 38.234375 40.671875 
Q 37.546875 42.96875 36.125 44.375 
Q 34.71875 45.796875 32.59375 46.453125 
Q 30.46875 47.125 27.59375 47.125 
Q 25.046875 47.125 23 46.75 
Q 20.953125 46.390625 19.4375 45.4375 
Q 17.921875 44.484375 16.984375 42.84375 
Q 16.0625 41.21875 15.765625 38.71875 
L 6.59375 39.546875 
Q 7.078125 42.671875 8.4375 45.28125 
Q 9.8125 47.90625 12.328125 49.796875 
Q 14.84375 51.703125 18.625 52.75 
Q 22.40625 53.8125 27.78125 53.8125 
Q 37.75 53.8125 42.765625 49.234375 
Q 47.796875 44.671875 47.796875 36.03125 
L 47.796875 13.28125 
Q 47.796875 9.375 48.828125 7.390625 
Q 49.859375 5.421875 52.734375 5.421875 
Q 53.46875 5.421875 54.203125 5.515625 
Q 54.9375 5.609375 55.609375 5.765625 
L 55.609375 0.296875 
Q 53.953125 -0.09375 52.3125 -0.28125 
Q 50.6875 -0.484375 48.828125 -0.484375 
Q 46.34375 -0.484375 44.5625 0.171875 
Q 42.78125 0.828125 41.65625 2.171875 
Q 40.53125 3.515625 39.9375 5.484375 
Q 39.359375 7.46875 39.203125 10.109375 
L 38.921875 10.109375 
Q 37.5 7.5625 35.8125 5.515625 
Q 34.125 3.46875 31.875 2.03125 
Q 29.640625 0.59375 26.78125 -0.1875 
Q 23.921875 -0.984375 20.21875 -0.984375 
z
M 22.21875 5.609375 
Q 26.421875 5.609375 29.5625 7.140625 
Q 32.71875 8.6875 34.78125 11.078125 
Q 36.859375 13.484375 37.890625 16.3125 
Q 38.921875 19.140625 38.921875 21.734375 
L 38.921875 26.078125 
L 29.296875 25.875 
Q 26.078125 25.828125 23.171875 25.40625 
Q 20.265625 25 18.0625 23.78125 
Q 15.875 22.5625 14.578125 20.359375 
Q 13.28125 18.171875 13.28125 14.59375 
Q 13.28125 10.296875 15.59375 7.953125 
Q 17.921875 5.609375 22.21875 5.609375 
z
" id="LiberationSans-97"/>
      <path d="M 6.6875 64.0625 
L 6.6875 72.46875 
L 15.484375 72.46875 
L 15.484375 64.0625 
z
M 6.6875 0 
L 6.6875 52.828125 
L 15.484375 52.828125 
L 15.484375 0 
z
" id="LiberationSans-105"/>
      <path d="M 40.28125 0 
L 40.28125 33.5 
Q 40.28125 37.359375 39.71875 39.9375 
Q 39.15625 42.53125 37.890625 44.109375 
Q 36.625 45.703125 34.546875 46.359375 
Q 32.46875 47.015625 29.390625 47.015625 
Q 26.265625 47.015625 23.75 45.921875 
Q 21.234375 44.828125 19.453125 42.75 
Q 17.671875 40.671875 16.6875 37.625 
Q 15.71875 34.578125 15.71875 30.609375 
L 15.71875 0 
L 6.9375 0 
L 6.9375 41.546875 
Q 6.9375 43.21875 6.90625 45.046875 
Q 6.890625 46.875 6.828125 48.5 
Q 6.78125 50.140625 6.734375 51.3125 
Q 6.6875 52.484375 6.640625 52.828125 
L 14.9375 52.828125 
Q 14.984375 52.59375 15.03125 51.515625 
Q 15.09375 50.4375 15.15625 49.046875 
Q 15.234375 47.65625 15.28125 46.21875 
Q 15.328125 44.78125 15.328125 43.796875 
L 15.484375 43.796875 
Q 16.75 46.09375 18.265625 47.953125 
Q 19.78125 49.8125 21.78125 51.09375 
Q 23.78125 52.390625 26.359375 53.09375 
Q 28.953125 53.8125 32.375 53.8125 
Q 36.765625 53.8125 39.9375 52.734375 
Q 43.109375 51.65625 45.15625 49.40625 
Q 47.21875 47.171875 48.171875 43.625 
Q 49.125 40.09375 49.125 35.203125 
L 49.125 0 
z
" id="LiberationSans-110"/>
      <path d="M 27.046875 0.390625 
Q 25.046875 -0.140625 22.96875 -0.453125 
Q 20.90625 -0.78125 18.171875 -0.78125 
Q 7.625 -0.78125 7.625 11.1875 
L 7.625 46.4375 
L 1.515625 46.4375 
L 1.515625 52.828125 
L 7.953125 52.828125 
L 10.546875 64.65625 
L 16.40625 64.65625 
L 16.40625 52.828125 
L 26.171875 52.828125 
L 26.171875 46.4375 
L 16.40625 46.4375 
L 16.40625 13.09375 
Q 16.40625 9.28125 17.640625 7.734375 
Q 18.890625 6.203125 21.96875 6.203125 
Q 23.25 6.203125 24.4375 6.390625 
Q 25.640625 6.59375 27.046875 6.890625 
z
" id="LiberationSans-116"/>
      <path d="M 46.390625 14.59375 
Q 46.390625 10.890625 44.9375 7.984375 
Q 43.5 5.078125 40.765625 3.09375 
Q 38.03125 1.125 34.046875 0.0625 
Q 30.078125 -0.984375 24.953125 -0.984375 
Q 20.359375 -0.984375 16.671875 -0.265625 
Q 12.984375 0.4375 10.203125 2 
Q 7.421875 3.5625 5.53125 6.125 
Q 3.65625 8.6875 2.78125 12.40625 
L 10.546875 13.921875 
Q 11.671875 9.671875 15.1875 7.6875 
Q 18.703125 5.71875 24.953125 5.71875 
Q 27.78125 5.71875 30.140625 6.109375 
Q 32.515625 6.5 34.21875 7.453125 
Q 35.9375 8.40625 36.890625 9.984375 
Q 37.84375 11.578125 37.84375 13.921875 
Q 37.84375 16.3125 36.71875 17.84375 
Q 35.59375 19.390625 33.59375 20.40625 
Q 31.59375 21.4375 28.734375 22.1875 
Q 25.875 22.953125 22.46875 23.875 
Q 19.28125 24.703125 16.15625 25.734375 
Q 13.03125 26.765625 10.515625 28.4375 
Q 8.015625 30.125 6.453125 32.609375 
Q 4.890625 35.109375 4.890625 38.875 
Q 4.890625 46.09375 10.03125 49.875 
Q 15.1875 53.65625 25.046875 53.65625 
Q 33.796875 53.65625 38.9375 50.578125 
Q 44.09375 47.515625 45.453125 40.71875 
L 37.546875 39.75 
Q 37.109375 41.796875 35.9375 43.1875 
Q 34.765625 44.578125 33.109375 45.4375 
Q 31.453125 46.296875 29.375 46.65625 
Q 27.296875 47.015625 25.046875 47.015625 
Q 19.09375 47.015625 16.25 45.203125 
Q 13.421875 43.40625 13.421875 39.75 
Q 13.421875 37.59375 14.46875 36.203125 
Q 15.53125 34.8125 17.40625 33.859375 
Q 19.28125 32.90625 21.921875 32.203125 
Q 24.5625 31.5 27.734375 30.71875 
Q 29.828125 30.171875 32.03125 29.5625 
Q 34.234375 28.953125 36.296875 28.09375 
Q 38.375 27.25 40.203125 26.09375 
Q 42.046875 24.953125 43.40625 23.34375 
Q 44.78125 21.734375 45.578125 19.578125 
Q 46.390625 17.4375 46.390625 14.59375 
z
" id="LiberationSans-115"/>
     </defs>
     <g transform="translate(363.259125 416.36175)scale(0.144 -0.144)">
      <use xlink:href="#LiberationSans-78"/>
      <use x="72.216797" xlink:href="#LiberationSans-117"/>
      <use x="127.832031" xlink:href="#LiberationSans-109"/>
      <use x="211.132812" xlink:href="#LiberationSans-98"/>
      <use x="266.748047" xlink:href="#LiberationSans-101"/>
      <use x="322.363281" xlink:href="#LiberationSans-114"/>
      <use x="355.664062" xlink:href="#LiberationSans-32"/>
      <use x="383.447266" xlink:href="#LiberationSans-111"/>
      <use x="439.0625" xlink:href="#LiberationSans-102"/>
      <use x="466.845703" xlink:href="#LiberationSans-32"/>
      <use x="494.628906" xlink:href="#LiberationSans-99"/>
      <use x="544.628906" xlink:href="#LiberationSans-111"/>
      <use x="600.244141" xlink:href="#LiberationSans-109"/>
      <use x="683.544922" xlink:href="#LiberationSans-112"/>
      <use x="739.160156" xlink:href="#LiberationSans-108"/>
      <use x="761.376953" xlink:href="#LiberationSans-97"/>
      <use x="816.992188" xlink:href="#LiberationSans-105"/>
      <use x="839.208984" xlink:href="#LiberationSans-110"/>
      <use x="894.824219" xlink:href="#LiberationSans-116"/>
      <use x="922.607422" xlink:href="#LiberationSans-115"/>
     </g>
    </g>
   </g>
   <g id="matplotlib.axis_2">
    <g id="ytick_1">
     <g id="line2d_16"/>
     <g id="line2d_17"/>
     <g id="text_7">
      <!-- CREDIT ACCEPTANCE CORPORATION -->
      <defs>
       <path d="M 38.671875 62.203125 
Q 32.8125 62.203125 28.296875 60.25 
Q 23.78125 58.296875 20.71875 54.6875 
Q 17.671875 51.078125 16.109375 46 
Q 14.546875 40.921875 14.546875 34.71875 
Q 14.546875 28.515625 16.234375 23.359375 
Q 17.921875 18.21875 21.0625 14.5 
Q 24.21875 10.796875 28.78125 8.734375 
Q 33.34375 6.6875 39.0625 6.6875 
Q 43.0625 6.6875 46.359375 7.734375 
Q 49.65625 8.796875 52.3125 10.6875 
Q 54.984375 12.59375 57.078125 15.203125 
Q 59.1875 17.828125 60.796875 21 
L 68.40625 17.1875 
Q 66.546875 13.328125 63.8125 10 
Q 61.078125 6.6875 57.390625 4.25 
Q 53.71875 1.8125 49.046875 0.40625 
Q 44.390625 -0.984375 38.625 -0.984375 
Q 30.28125 -0.984375 24 1.671875 
Q 17.71875 4.34375 13.5 9.109375 
Q 9.28125 13.875 7.171875 20.40625 
Q 5.078125 26.953125 5.078125 34.71875 
Q 5.078125 42.78125 7.296875 49.265625 
Q 9.515625 55.765625 13.78125 60.328125 
Q 18.0625 64.890625 24.3125 67.359375 
Q 30.5625 69.828125 38.578125 69.828125 
Q 49.5625 69.828125 56.9375 65.53125 
Q 64.3125 61.234375 67.78125 52.78125 
L 58.9375 49.859375 
Q 57.953125 52.296875 56.296875 54.515625 
Q 54.640625 56.734375 52.140625 58.4375 
Q 49.65625 60.15625 46.3125 61.171875 
Q 42.96875 62.203125 38.671875 62.203125 
z
" id="LiberationSans-67"/>
       <path d="M 56.84375 0 
L 38.96875 28.5625 
L 17.53125 28.5625 
L 17.53125 0 
L 8.203125 0 
L 8.203125 68.796875 
L 40.578125 68.796875 
Q 46.4375 68.796875 50.953125 67.453125 
Q 55.46875 66.109375 58.546875 63.5625 
Q 61.625 61.03125 63.234375 57.375 
Q 64.84375 53.71875 64.84375 49.125 
Q 64.84375 45.84375 63.890625 42.671875 
Q 62.9375 39.5 60.890625 36.859375 
Q 58.84375 34.234375 55.65625 32.328125 
Q 52.484375 30.421875 48.046875 29.640625 
L 67.578125 0 
z
M 55.46875 49.03125 
Q 55.46875 52.15625 54.390625 54.4375 
Q 53.328125 56.734375 51.265625 58.265625 
Q 49.21875 59.8125 46.28125 60.5625 
Q 43.359375 61.328125 39.65625 61.328125 
L 17.53125 61.328125 
L 17.53125 35.9375 
L 40.046875 35.9375 
Q 44.046875 35.9375 46.96875 36.9375 
Q 49.90625 37.9375 51.78125 39.6875 
Q 53.65625 41.453125 54.5625 43.84375 
Q 55.46875 46.234375 55.46875 49.03125 
z
" id="LiberationSans-82"/>
       <path d="M 8.203125 0 
L 8.203125 68.796875 
L 60.40625 68.796875 
L 60.40625 61.1875 
L 17.53125 61.1875 
L 17.53125 39.109375 
L 57.46875 39.109375 
L 57.46875 31.59375 
L 17.53125 31.59375 
L 17.53125 7.625 
L 62.40625 7.625 
L 62.40625 0 
z
" id="LiberationSans-69"/>
       <path d="M 67.4375 35.109375 
Q 67.4375 26.515625 64.84375 19.9375 
Q 62.25 13.375 57.75 8.953125 
Q 53.265625 4.546875 47.140625 2.265625 
Q 41.015625 0 33.9375 0 
L 8.203125 0 
L 8.203125 68.796875 
L 30.953125 68.796875 
Q 38.921875 68.796875 45.625 66.8125 
Q 52.34375 64.84375 57.171875 60.71875 
Q 62.015625 56.59375 64.71875 50.234375 
Q 67.4375 43.890625 67.4375 35.109375 
z
M 58.0625 35.109375 
Q 58.0625 42.09375 56.046875 47.046875 
Q 54.046875 52 50.4375 55.171875 
Q 46.828125 58.34375 41.796875 59.828125 
Q 36.765625 61.328125 30.765625 61.328125 
L 17.53125 61.328125 
L 17.53125 7.46875 
L 32.859375 7.46875 
Q 38.28125 7.46875 42.890625 9.21875 
Q 47.515625 10.984375 50.875 14.453125 
Q 54.25 17.921875 56.15625 23.09375 
Q 58.0625 28.265625 58.0625 35.109375 
z
" id="LiberationSans-68"/>
       <path d="M 9.234375 0 
L 9.234375 68.796875 
L 18.5625 68.796875 
L 18.5625 0 
z
" id="LiberationSans-73"/>
       <path d="M 35.15625 61.1875 
L 35.15625 0 
L 25.875 0 
L 25.875 61.1875 
L 2.25 61.1875 
L 2.25 68.796875 
L 58.796875 68.796875 
L 58.796875 61.1875 
z
" id="LiberationSans-84"/>
       <path d="M 56.984375 0 
L 49.125 20.125 
L 17.78125 20.125 
L 9.859375 0 
L 0.203125 0 
L 28.265625 68.796875 
L 38.875 68.796875 
L 66.5 0 
z
M 37.5 50.09375 
Q 36.71875 52.046875 36 54.046875 
Q 35.296875 56.0625 34.765625 57.6875 
Q 34.234375 59.328125 33.859375 60.421875 
Q 33.5 61.53125 33.453125 61.765625 
Q 33.34375 61.53125 33 60.40625 
Q 32.671875 59.28125 32.109375 57.609375 
Q 31.546875 55.953125 30.828125 53.953125 
Q 30.125 51.953125 29.390625 50 
L 20.609375 27.390625 
L 46.34375 27.390625 
z
" id="LiberationSans-65"/>
       <path d="M 61.421875 48.09375 
Q 61.421875 43.609375 59.9375 39.71875 
Q 58.453125 35.84375 55.5 32.984375 
Q 52.546875 30.125 48.09375 28.46875 
Q 43.65625 26.8125 37.75 26.8125 
L 17.53125 26.8125 
L 17.53125 0 
L 8.203125 0 
L 8.203125 68.796875 
L 37.15625 68.796875 
Q 43.265625 68.796875 47.796875 67.3125 
Q 52.34375 65.828125 55.375 63.109375 
Q 58.40625 60.40625 59.90625 56.5625 
Q 61.421875 52.734375 61.421875 48.09375 
z
M 52.046875 48 
Q 52.046875 54.546875 48.046875 57.9375 
Q 44.046875 61.328125 36.03125 61.328125 
L 17.53125 61.328125 
L 17.53125 34.1875 
L 36.421875 34.1875 
Q 44.484375 34.1875 48.265625 37.75 
Q 52.046875 41.3125 52.046875 48 
z
" id="LiberationSans-80"/>
       <path d="M 73 34.71875 
Q 73 26.65625 70.671875 20.0625 
Q 68.359375 13.484375 63.96875 8.796875 
Q 59.578125 4.109375 53.21875 1.5625 
Q 46.875 -0.984375 38.8125 -0.984375 
Q 30.328125 -0.984375 23.921875 1.671875 
Q 17.53125 4.34375 13.28125 9.109375 
Q 9.03125 13.875 6.875 20.40625 
Q 4.734375 26.953125 4.734375 34.71875 
Q 4.734375 42.78125 6.984375 49.265625 
Q 9.234375 55.765625 13.578125 60.328125 
Q 17.921875 64.890625 24.296875 67.359375 
Q 30.671875 69.828125 38.921875 69.828125 
Q 47.125 69.828125 53.484375 67.328125 
Q 59.859375 64.84375 64.171875 60.25 
Q 68.5 55.671875 70.75 49.171875 
Q 73 42.671875 73 34.71875 
z
M 63.484375 34.71875 
Q 63.484375 40.921875 61.890625 46 
Q 60.296875 51.078125 57.203125 54.6875 
Q 54.109375 58.296875 49.515625 60.25 
Q 44.921875 62.203125 38.921875 62.203125 
Q 32.765625 62.203125 28.125 60.25 
Q 23.484375 58.296875 20.375 54.6875 
Q 17.28125 51.078125 15.734375 46 
Q 14.203125 40.921875 14.203125 34.71875 
Q 14.203125 28.515625 15.796875 23.359375 
Q 17.390625 18.21875 20.484375 14.484375 
Q 23.578125 10.75 28.1875 8.671875 
Q 32.8125 6.59375 38.8125 6.59375 
Q 45.265625 6.59375 49.921875 8.6875 
Q 54.59375 10.796875 57.59375 14.53125 
Q 60.59375 18.265625 62.03125 23.4375 
Q 63.484375 28.609375 63.484375 34.71875 
z
" id="LiberationSans-79"/>
      </defs>
      <g transform="translate(90.149375 356.721307)scale(0.12 -0.12)">
       <use xlink:href="#LiberationSans-67"/>
       <use x="72.216797" xlink:href="#LiberationSans-82"/>
       <use x="144.433594" xlink:href="#LiberationSans-69"/>
       <use x="211.132812" xlink:href="#LiberationSans-68"/>
       <use x="283.349609" xlink:href="#LiberationSans-73"/>
       <use x="311.132812" xlink:href="#LiberationSans-84"/>
       <use x="372.201172" xlink:href="#LiberationSans-32"/>
       <use x="399.90625" xlink:href="#LiberationSans-65"/>
       <use x="466.605469" xlink:href="#LiberationSans-67"/>
       <use x="538.822266" xlink:href="#LiberationSans-67"/>
       <use x="611.039062" xlink:href="#LiberationSans-69"/>
       <use x="677.738281" xlink:href="#LiberationSans-80"/>
       <use x="744.4375" xlink:href="#LiberationSans-84"/>
       <use x="805.412109" xlink:href="#LiberationSans-65"/>
       <use x="872.111328" xlink:href="#LiberationSans-78"/>
       <use x="944.328125" xlink:href="#LiberationSans-67"/>
       <use x="1016.544922" xlink:href="#LiberationSans-69"/>
       <use x="1083.244141" xlink:href="#LiberationSans-32"/>
       <use x="1111.027344" xlink:href="#LiberationSans-67"/>
       <use x="1183.244141" xlink:href="#LiberationSans-79"/>
       <use x="1261.027344" xlink:href="#LiberationSans-82"/>
       <use x="1333.244141" xlink:href="#LiberationSans-80"/>
       <use x="1399.943359" xlink:href="#LiberationSans-79"/>
       <use x="1477.726562" xlink:href="#LiberationSans-82"/>
       <use x="1549.943359" xlink:href="#LiberationSans-65"/>
       <use x="1616.533203" xlink:href="#LiberationSans-84"/>
       <use x="1677.617188" xlink:href="#LiberationSans-73"/>
       <use x="1705.400391" xlink:href="#LiberationSans-79"/>
       <use x="1783.183594" xlink:href="#LiberationSans-78"/>
      </g>
     </g>
    </g>
    <g id="ytick_2">
     <g id="line2d_18"/>
     <g id="line2d_19"/>
     <g id="text_8">
      <!-- NISSAN MOTOR ACCEPTANCE CORPORATION -->
      <defs>
       <path d="M 62.109375 19 
Q 62.109375 14.65625 60.421875 10.984375 
Q 58.734375 7.328125 55.21875 4.65625 
Q 51.703125 2 46.359375 0.5 
Q 41.015625 -0.984375 33.6875 -0.984375 
Q 20.84375 -0.984375 13.671875 3.515625 
Q 6.5 8.015625 4.546875 16.5 
L 13.578125 18.3125 
Q 14.265625 15.625 15.671875 13.421875 
Q 17.09375 11.234375 19.5 9.640625 
Q 21.921875 8.0625 25.484375 7.171875 
Q 29.046875 6.296875 34.03125 6.296875 
Q 38.1875 6.296875 41.65625 7 
Q 45.125 7.71875 47.609375 9.171875 
Q 50.09375 10.640625 51.484375 12.953125 
Q 52.875 15.28125 52.875 18.5 
Q 52.875 21.875 51.34375 23.96875 
Q 49.8125 26.078125 47.015625 27.4375 
Q 44.234375 28.8125 40.375 29.734375 
Q 36.53125 30.671875 31.84375 31.734375 
Q 28.953125 32.375 26.046875 33.125 
Q 23.140625 33.890625 20.484375 34.9375 
Q 17.828125 35.984375 15.484375 37.390625 
Q 13.140625 38.8125 11.421875 40.796875 
Q 9.71875 42.78125 8.734375 45.390625 
Q 7.765625 48 7.765625 51.421875 
Q 7.765625 56.296875 9.734375 59.78125 
Q 11.71875 63.28125 15.234375 65.53125 
Q 18.75 67.78125 23.53125 68.796875 
Q 28.328125 69.828125 33.890625 69.828125 
Q 40.28125 69.828125 44.8125 68.828125 
Q 49.359375 67.828125 52.484375 65.8125 
Q 55.609375 63.8125 57.484375 60.859375 
Q 59.375 57.90625 60.5 54 
L 51.3125 52.390625 
Q 50.640625 54.890625 49.34375 56.84375 
Q 48.046875 58.796875 45.9375 60.109375 
Q 43.84375 61.421875 40.84375 62.109375 
Q 37.84375 62.796875 33.796875 62.796875 
Q 29 62.796875 25.75 61.9375 
Q 22.515625 61.078125 20.53125 59.609375 
Q 18.5625 58.15625 17.703125 56.171875 
Q 16.84375 54.203125 16.84375 51.90625 
Q 16.84375 48.828125 18.375 46.84375 
Q 19.921875 44.875 22.5625 43.546875 
Q 25.203125 42.234375 28.65625 41.359375 
Q 32.125 40.484375 36.03125 39.59375 
Q 39.203125 38.875 42.359375 38.109375 
Q 45.515625 37.359375 48.390625 36.296875 
Q 51.265625 35.25 53.78125 33.828125 
Q 56.296875 32.421875 58.15625 30.375 
Q 60.015625 28.328125 61.0625 25.53125 
Q 62.109375 22.75 62.109375 19 
z
" id="LiberationSans-83"/>
       <path d="M 66.703125 0 
L 66.703125 45.90625 
Q 66.703125 48.390625 66.75 50.96875 
Q 66.796875 53.5625 66.890625 55.71875 
Q 67 58.203125 67.140625 60.546875 
Q 66.453125 58.0625 65.71875 55.609375 
Q 65.09375 53.515625 64.328125 51.140625 
Q 63.578125 48.78125 62.84375 46.875 
L 45.0625 0 
L 38.53125 0 
L 20.515625 46.875 
Q 20.21875 47.609375 19.890625 48.578125 
Q 19.578125 49.5625 19.203125 50.65625 
Q 18.84375 51.765625 18.46875 52.90625 
Q 18.109375 54.046875 17.78125 55.171875 
Q 16.9375 57.765625 16.15625 60.546875 
Q 16.21875 57.8125 16.3125 55.125 
Q 16.40625 52.828125 16.453125 50.3125 
Q 16.5 47.796875 16.5 45.90625 
L 16.5 0 
L 8.203125 0 
L 8.203125 68.796875 
L 20.453125 68.796875 
L 38.765625 21.09375 
Q 39.109375 20.125 39.59375 18.578125 
Q 40.09375 17.046875 40.53125 15.421875 
Q 40.96875 13.8125 41.328125 12.375 
Q 41.703125 10.9375 41.84375 10.15625 
Q 42 10.9375 42.390625 12.40625 
Q 42.78125 13.875 43.28125 15.484375 
Q 43.796875 17.09375 44.28125 18.609375 
Q 44.78125 20.125 45.171875 21.09375 
L 63.140625 68.796875 
L 75.09375 68.796875 
L 75.09375 0 
z
" id="LiberationSans-77"/>
      </defs>
      <g transform="translate(42.14375 324.599489)scale(0.12 -0.12)">
       <use xlink:href="#LiberationSans-78"/>
       <use x="72.216797" xlink:href="#LiberationSans-73"/>
       <use x="100" xlink:href="#LiberationSans-83"/>
       <use x="166.699219" xlink:href="#LiberationSans-83"/>
       <use x="233.398438" xlink:href="#LiberationSans-65"/>
       <use x="300.097656" xlink:href="#LiberationSans-78"/>
       <use x="372.314453" xlink:href="#LiberationSans-32"/>
       <use x="400.097656" xlink:href="#LiberationSans-77"/>
       <use x="483.398438" xlink:href="#LiberationSans-79"/>
       <use x="561.181641" xlink:href="#LiberationSans-84"/>
       <use x="622.25" xlink:href="#LiberationSans-79"/>
       <use x="700.033203" xlink:href="#LiberationSans-82"/>
       <use x="772.25" xlink:href="#LiberationSans-32"/>
       <use x="799.955078" xlink:href="#LiberationSans-65"/>
       <use x="866.654297" xlink:href="#LiberationSans-67"/>
       <use x="938.871094" xlink:href="#LiberationSans-67"/>
       <use x="1011.087891" xlink:href="#LiberationSans-69"/>
       <use x="1077.787109" xlink:href="#LiberationSans-80"/>
       <use x="1144.486328" xlink:href="#LiberationSans-84"/>
       <use x="1205.460938" xlink:href="#LiberationSans-65"/>
       <use x="1272.160156" xlink:href="#LiberationSans-78"/>
       <use x="1344.376953" xlink:href="#LiberationSans-67"/>
       <use x="1416.59375" xlink:href="#LiberationSans-69"/>
       <use x="1483.292969" xlink:href="#LiberationSans-32"/>
       <use x="1511.076172" xlink:href="#LiberationSans-67"/>
       <use x="1583.292969" xlink:href="#LiberationSans-79"/>
       <use x="1661.076172" xlink:href="#LiberationSans-82"/>
       <use x="1733.292969" xlink:href="#LiberationSans-80"/>
       <use x="1799.992188" xlink:href="#LiberationSans-79"/>
       <use x="1877.775391" xlink:href="#LiberationSans-82"/>
       <use x="1949.992188" xlink:href="#LiberationSans-65"/>
       <use x="2016.582031" xlink:href="#LiberationSans-84"/>
       <use x="2077.666016" xlink:href="#LiberationSans-73"/>
       <use x="2105.449219" xlink:href="#LiberationSans-79"/>
       <use x="2183.232422" xlink:href="#LiberationSans-78"/>
      </g>
     </g>
    </g>
    <g id="ytick_3">
     <g id="line2d_20"/>
     <g id="line2d_21"/>
     <g id="text_9">
      <!-- HYUNDAI CAPITAL AMERICA -->
      <defs>
       <path d="M 54.734375 0 
L 54.734375 31.890625 
L 17.53125 31.890625 
L 17.53125 0 
L 8.203125 0 
L 8.203125 68.796875 
L 17.53125 68.796875 
L 17.53125 39.703125 
L 54.734375 39.703125 
L 54.734375 68.796875 
L 64.0625 68.796875 
L 64.0625 0 
z
" id="LiberationSans-72"/>
       <path d="M 37.9375 28.515625 
L 37.9375 0 
L 28.65625 0 
L 28.65625 28.515625 
L 2.203125 68.796875 
L 12.453125 68.796875 
L 33.40625 36.03125 
L 54.25 68.796875 
L 64.5 68.796875 
z
" id="LiberationSans-89"/>
       <path d="M 35.6875 -0.984375 
Q 30.03125 -0.984375 24.953125 0.53125 
Q 19.875 2.046875 16.03125 5.25 
Q 12.203125 8.453125 9.953125 13.359375 
Q 7.71875 18.265625 7.71875 25 
L 7.71875 68.796875 
L 17.046875 68.796875 
L 17.046875 25.78125 
Q 17.046875 20.5625 18.4375 16.921875 
Q 19.828125 13.28125 22.3125 10.984375 
Q 24.8125 8.6875 28.203125 7.640625 
Q 31.59375 6.59375 35.640625 6.59375 
Q 39.65625 6.59375 43.21875 7.65625 
Q 46.78125 8.734375 49.46875 11.078125 
Q 52.15625 13.421875 53.6875 17.203125 
Q 55.21875 21 55.21875 26.421875 
L 55.21875 68.796875 
L 64.5 68.796875 
L 64.5 25.875 
Q 64.5 19 62.234375 13.9375 
Q 59.96875 8.890625 56.0625 5.5625 
Q 52.15625 2.25 46.90625 0.625 
Q 41.65625 -0.984375 35.6875 -0.984375 
z
" id="LiberationSans-85"/>
       <path d="M 8.203125 0 
L 8.203125 68.796875 
L 17.53125 68.796875 
L 17.53125 7.625 
L 52.296875 7.625 
L 52.296875 0 
z
" id="LiberationSans-76"/>
      </defs>
      <g transform="translate(147.4625 292.47767)scale(0.12 -0.12)">
       <use xlink:href="#LiberationSans-72"/>
       <use x="72.216797" xlink:href="#LiberationSans-89"/>
       <use x="138.916016" xlink:href="#LiberationSans-85"/>
       <use x="211.132812" xlink:href="#LiberationSans-78"/>
       <use x="283.349609" xlink:href="#LiberationSans-68"/>
       <use x="355.566406" xlink:href="#LiberationSans-65"/>
       <use x="422.265625" xlink:href="#LiberationSans-73"/>
       <use x="450.048828" xlink:href="#LiberationSans-32"/>
       <use x="477.832031" xlink:href="#LiberationSans-67"/>
       <use x="550.048828" xlink:href="#LiberationSans-65"/>
       <use x="616.748047" xlink:href="#LiberationSans-80"/>
       <use x="683.447266" xlink:href="#LiberationSans-73"/>
       <use x="711.230469" xlink:href="#LiberationSans-84"/>
       <use x="772.205078" xlink:href="#LiberationSans-65"/>
       <use x="838.904297" xlink:href="#LiberationSans-76"/>
       <use x="894.472656" xlink:href="#LiberationSans-32"/>
       <use x="922.177734" xlink:href="#LiberationSans-65"/>
       <use x="988.876953" xlink:href="#LiberationSans-77"/>
       <use x="1072.177734" xlink:href="#LiberationSans-69"/>
       <use x="1138.876953" xlink:href="#LiberationSans-82"/>
       <use x="1211.09375" xlink:href="#LiberationSans-73"/>
       <use x="1238.876953" xlink:href="#LiberationSans-67"/>
       <use x="1311.09375" xlink:href="#LiberationSans-65"/>
      </g>
     </g>
    </g>
    <g id="ytick_4">
     <g id="line2d_22"/>
     <g id="line2d_23"/>
     <g id="text_10">
      <!-- JPMORGAN CHASE &amp; CO. -->
      <defs>
       <path d="M 22.3125 -0.984375 
Q 13.96875 -0.984375 8.609375 3.359375 
Q 3.265625 7.71875 1.5625 17.09375 
L 10.6875 18.609375 
Q 11.1875 15.4375 12.296875 13.15625 
Q 13.421875 10.890625 14.984375 9.421875 
Q 16.546875 7.953125 18.453125 7.265625 
Q 20.359375 6.59375 22.359375 6.59375 
Q 27.4375 6.59375 30.359375 10.078125 
Q 33.296875 13.578125 33.296875 20.3125 
L 33.296875 61.1875 
L 20.0625 61.1875 
L 20.0625 68.796875 
L 42.578125 68.796875 
L 42.578125 20.515625 
Q 42.578125 15.578125 41.203125 11.625 
Q 39.84375 7.671875 37.234375 4.859375 
Q 34.625 2.046875 30.859375 0.53125 
Q 27.09375 -0.984375 22.3125 -0.984375 
z
" id="LiberationSans-74"/>
       <path d="M 5.03125 34.71875 
Q 5.03125 42.78125 7.203125 49.265625 
Q 9.375 55.765625 13.6875 60.328125 
Q 18.015625 64.890625 24.40625 67.359375 
Q 30.8125 69.828125 39.265625 69.828125 
Q 45.609375 69.828125 50.390625 68.703125 
Q 55.171875 67.578125 58.6875 65.46875 
Q 62.203125 63.375 64.640625 60.375 
Q 67.09375 57.375 68.796875 53.609375 
L 59.90625 50.984375 
Q 58.640625 53.515625 56.859375 55.59375 
Q 55.078125 57.671875 52.53125 59.125 
Q 50 60.59375 46.65625 61.390625 
Q 43.3125 62.203125 39.015625 62.203125 
Q 32.765625 62.203125 28.140625 60.25 
Q 23.53125 58.296875 20.5 54.6875 
Q 17.484375 51.078125 15.984375 46 
Q 14.5 40.921875 14.5 34.71875 
Q 14.5 28.515625 16.109375 23.359375 
Q 17.71875 18.21875 20.890625 14.484375 
Q 24.078125 10.75 28.78125 8.671875 
Q 33.5 6.59375 39.703125 6.59375 
Q 43.75 6.59375 47.171875 7.265625 
Q 50.59375 7.953125 53.34375 9.046875 
Q 56.109375 10.15625 58.203125 11.5 
Q 60.296875 12.84375 61.71875 14.203125 
L 61.71875 26.609375 
L 41.15625 26.609375 
L 41.15625 34.421875 
L 70.3125 34.421875 
L 70.3125 10.6875 
Q 68.015625 8.34375 64.90625 6.21875 
Q 61.8125 4.109375 57.953125 2.484375 
Q 54.109375 0.875 49.515625 -0.046875 
Q 44.921875 -0.984375 39.703125 -0.984375 
Q 31 -0.984375 24.5 1.671875 
Q 18.015625 4.34375 13.6875 9.109375 
Q 9.375 13.875 7.203125 20.40625 
Q 5.03125 26.953125 5.03125 34.71875 
z
" id="LiberationSans-71"/>
       <path d="M 58.25 -0.59375 
Q 53.5625 -0.59375 50.046875 1.015625 
Q 46.53125 2.640625 43.703125 5.609375 
Q 42.234375 4.34375 40.375 3.171875 
Q 38.53125 2 36.25 1.0625 
Q 33.984375 0.140625 31.3125 -0.421875 
Q 28.65625 -0.984375 25.53125 -0.984375 
Q 19.828125 -0.984375 15.640625 0.484375 
Q 11.46875 1.953125 8.78125 4.515625 
Q 6.109375 7.078125 4.8125 10.5625 
Q 3.515625 14.0625 3.515625 18.109375 
Q 3.515625 21.96875 4.75 25.109375 
Q 6 28.265625 8.21875 30.828125 
Q 10.453125 33.40625 13.53125 35.421875 
Q 16.609375 37.453125 20.265625 39.0625 
Q 19.390625 40.71875 18.671875 42.59375 
Q 17.96875 44.484375 17.421875 46.390625 
Q 16.890625 48.296875 16.59375 50.1875 
Q 16.3125 52.09375 16.3125 53.8125 
Q 16.3125 57.03125 17.28125 59.828125 
Q 18.265625 62.640625 20.328125 64.71875 
Q 22.40625 66.796875 25.65625 67.984375 
Q 28.90625 69.1875 33.453125 69.1875 
Q 37.015625 69.1875 40.015625 68.25 
Q 43.015625 67.328125 45.203125 65.5625 
Q 47.40625 63.8125 48.625 61.21875 
Q 49.859375 58.640625 49.859375 55.328125 
Q 49.859375 51.65625 48.234375 48.796875 
Q 46.625 45.953125 43.890625 43.703125 
Q 41.15625 41.453125 37.546875 39.625 
Q 33.9375 37.796875 29.890625 36.1875 
Q 32.90625 30.609375 36.46875 25.703125 
Q 40.046875 20.796875 44.1875 16.0625 
Q 47.171875 20.453125 49.140625 25.3125 
Q 51.125 30.171875 52.546875 36.078125 
L 59.625 33.984375 
Q 57.90625 27.203125 55.296875 21.65625 
Q 52.6875 16.109375 49.265625 11.078125 
Q 51.859375 8.453125 54.4375 7.375 
Q 57.03125 6.296875 59.421875 6.296875 
Q 60.984375 6.296875 62.421875 6.46875 
Q 63.875 6.640625 65.140625 7.078125 
L 65.140625 0.484375 
Q 63.765625 -0.046875 61.9375 -0.3125 
Q 60.109375 -0.59375 58.25 -0.59375 
z
M 42.4375 55.328125 
Q 42.4375 57.125 41.765625 58.59375 
Q 41.109375 60.0625 39.9375 61.109375 
Q 38.765625 62.15625 37.078125 62.71875 
Q 35.40625 63.28125 33.34375 63.28125 
Q 28.65625 63.28125 26.21875 60.765625 
Q 23.78125 58.25 23.78125 53.8125 
Q 23.78125 50.921875 24.6875 47.765625 
Q 25.59375 44.625 26.953125 41.890625 
Q 30.125 43.171875 32.953125 44.5 
Q 35.796875 45.84375 37.890625 47.4375 
Q 39.984375 49.03125 41.203125 50.953125 
Q 42.4375 52.875 42.4375 55.328125 
z
M 38.8125 10.59375 
Q 34.46875 15.71875 30.46875 21.328125 
Q 26.46875 26.953125 23.25 32.90625 
Q 17.71875 30.5625 14.71875 26.953125 
Q 11.71875 23.34375 11.71875 18.21875 
Q 11.71875 15.53125 12.5625 13.203125 
Q 13.421875 10.890625 15.171875 9.15625 
Q 16.9375 7.421875 19.59375 6.421875 
Q 22.265625 5.421875 25.828125 5.421875 
Q 27.984375 5.421875 29.90625 5.875 
Q 31.84375 6.34375 33.5 7.078125 
Q 35.15625 7.8125 36.5 8.734375 
Q 37.84375 9.671875 38.8125 10.59375 
z
" id="LiberationSans-38"/>
       <path d="M 9.125 0 
L 9.125 10.6875 
L 18.65625 10.6875 
L 18.65625 0 
z
" id="LiberationSans-46"/>
      </defs>
      <g transform="translate(164.110625 260.355852)scale(0.12 -0.12)">
       <use xlink:href="#LiberationSans-74"/>
       <use x="50" xlink:href="#LiberationSans-80"/>
       <use x="116.699219" xlink:href="#LiberationSans-77"/>
       <use x="200" xlink:href="#LiberationSans-79"/>
       <use x="277.783203" xlink:href="#LiberationSans-82"/>
       <use x="350" xlink:href="#LiberationSans-71"/>
       <use x="427.783203" xlink:href="#LiberationSans-65"/>
       <use x="494.482422" xlink:href="#LiberationSans-78"/>
       <use x="566.699219" xlink:href="#LiberationSans-32"/>
       <use x="594.482422" xlink:href="#LiberationSans-67"/>
       <use x="666.699219" xlink:href="#LiberationSans-72"/>
       <use x="738.916016" xlink:href="#LiberationSans-65"/>
       <use x="805.615234" xlink:href="#LiberationSans-83"/>
       <use x="872.314453" xlink:href="#LiberationSans-69"/>
       <use x="939.013672" xlink:href="#LiberationSans-32"/>
       <use x="966.796875" xlink:href="#LiberationSans-38"/>
       <use x="1033.496094" xlink:href="#LiberationSans-32"/>
       <use x="1061.279297" xlink:href="#LiberationSans-67"/>
       <use x="1133.496094" xlink:href="#LiberationSans-79"/>
       <use x="1211.279297" xlink:href="#LiberationSans-46"/>
      </g>
     </g>
    </g>
    <g id="ytick_5">
     <g id="line2d_24"/>
     <g id="line2d_25"/>
     <g id="text_11">
      <!-- CAPITAL ONE FINANCIAL CORPORATION -->
      <defs>
       <path d="M 17.53125 61.1875 
L 17.53125 35.59375 
L 55.90625 35.59375 
L 55.90625 27.875 
L 17.53125 27.875 
L 17.53125 0 
L 8.203125 0 
L 8.203125 68.796875 
L 57.078125 68.796875 
L 57.078125 61.1875 
z
" id="LiberationSans-70"/>
      </defs>
      <g transform="translate(74.800625 228.234034)scale(0.12 -0.12)">
       <use xlink:href="#LiberationSans-67"/>
       <use x="72.216797" xlink:href="#LiberationSans-65"/>
       <use x="138.916016" xlink:href="#LiberationSans-80"/>
       <use x="205.615234" xlink:href="#LiberationSans-73"/>
       <use x="233.398438" xlink:href="#LiberationSans-84"/>
       <use x="294.373047" xlink:href="#LiberationSans-65"/>
       <use x="361.072266" xlink:href="#LiberationSans-76"/>
       <use x="416.640625" xlink:href="#LiberationSans-32"/>
       <use x="444.423828" xlink:href="#LiberationSans-79"/>
       <use x="522.207031" xlink:href="#LiberationSans-78"/>
       <use x="594.423828" xlink:href="#LiberationSans-69"/>
       <use x="661.123047" xlink:href="#LiberationSans-32"/>
       <use x="688.90625" xlink:href="#LiberationSans-70"/>
       <use x="749.990234" xlink:href="#LiberationSans-73"/>
       <use x="777.773438" xlink:href="#LiberationSans-78"/>
       <use x="849.990234" xlink:href="#LiberationSans-65"/>
       <use x="916.689453" xlink:href="#LiberationSans-78"/>
       <use x="988.90625" xlink:href="#LiberationSans-67"/>
       <use x="1061.123047" xlink:href="#LiberationSans-73"/>
       <use x="1088.90625" xlink:href="#LiberationSans-65"/>
       <use x="1155.605469" xlink:href="#LiberationSans-76"/>
       <use x="1211.173828" xlink:href="#LiberationSans-32"/>
       <use x="1238.957031" xlink:href="#LiberationSans-67"/>
       <use x="1311.173828" xlink:href="#LiberationSans-79"/>
       <use x="1388.957031" xlink:href="#LiberationSans-82"/>
       <use x="1461.173828" xlink:href="#LiberationSans-80"/>
       <use x="1527.873047" xlink:href="#LiberationSans-79"/>
       <use x="1605.65625" xlink:href="#LiberationSans-82"/>
       <use x="1677.873047" xlink:href="#LiberationSans-65"/>
       <use x="1744.462891" xlink:href="#LiberationSans-84"/>
       <use x="1805.546875" xlink:href="#LiberationSans-73"/>
       <use x="1833.330078" xlink:href="#LiberationSans-79"/>
       <use x="1911.113281" xlink:href="#LiberationSans-78"/>
      </g>
     </g>
    </g>
    <g id="ytick_6">
     <g id="line2d_26"/>
     <g id="line2d_27"/>
     <g id="text_12">
      <!-- TOYOTA MOTOR CREDIT CORPORATION -->
      <g transform="translate(74.841875 196.112216)scale(0.12 -0.12)">
       <use xlink:href="#LiberationSans-84"/>
       <use x="61.068359" xlink:href="#LiberationSans-79"/>
       <use x="138.851562" xlink:href="#LiberationSans-89"/>
       <use x="205.550781" xlink:href="#LiberationSans-79"/>
       <use x="283.333984" xlink:href="#LiberationSans-84"/>
       <use x="344.308594" xlink:href="#LiberationSans-65"/>
       <use x="410.929688" xlink:href="#LiberationSans-32"/>
       <use x="438.712891" xlink:href="#LiberationSans-77"/>
       <use x="522.013672" xlink:href="#LiberationSans-79"/>
       <use x="599.796875" xlink:href="#LiberationSans-84"/>
       <use x="660.865234" xlink:href="#LiberationSans-79"/>
       <use x="738.648438" xlink:href="#LiberationSans-82"/>
       <use x="810.865234" xlink:href="#LiberationSans-32"/>
       <use x="838.648438" xlink:href="#LiberationSans-67"/>
       <use x="910.865234" xlink:href="#LiberationSans-82"/>
       <use x="983.082031" xlink:href="#LiberationSans-69"/>
       <use x="1049.78125" xlink:href="#LiberationSans-68"/>
       <use x="1121.998047" xlink:href="#LiberationSans-73"/>
       <use x="1149.78125" xlink:href="#LiberationSans-84"/>
       <use x="1210.849609" xlink:href="#LiberationSans-32"/>
       <use x="1238.632812" xlink:href="#LiberationSans-67"/>
       <use x="1310.849609" xlink:href="#LiberationSans-79"/>
       <use x="1388.632812" xlink:href="#LiberationSans-82"/>
       <use x="1460.849609" xlink:href="#LiberationSans-80"/>
       <use x="1527.548828" xlink:href="#LiberationSans-79"/>
       <use x="1605.332031" xlink:href="#LiberationSans-82"/>
       <use x="1677.548828" xlink:href="#LiberationSans-65"/>
       <use x="1744.138672" xlink:href="#LiberationSans-84"/>
       <use x="1805.222656" xlink:href="#LiberationSans-73"/>
       <use x="1833.005859" xlink:href="#LiberationSans-79"/>
       <use x="1910.789062" xlink:href="#LiberationSans-78"/>
      </g>
     </g>
    </g>
    <g id="ytick_7">
     <g id="line2d_28"/>
     <g id="line2d_29"/>
     <g id="text_13">
      <!-- GENERAL MOTORS FINANCIAL COMPANY, INC. -->
      <defs>
       <path d="M 18.796875 10.6875 
L 18.796875 2.484375 
Q 18.796875 -0.09375 18.578125 -2.21875 
Q 18.359375 -4.34375 17.875 -6.171875 
Q 17.390625 -8.015625 16.671875 -9.625 
Q 15.96875 -11.234375 14.984375 -12.796875 
L 8.984375 -12.796875 
Q 11.1875 -9.625 12.375 -6.390625 
Q 13.578125 -3.171875 13.578125 0 
L 9.28125 0 
L 9.28125 10.6875 
z
" id="LiberationSans-44"/>
      </defs>
      <g transform="translate(38.811875 163.990398)scale(0.12 -0.12)">
       <use xlink:href="#LiberationSans-71"/>
       <use x="77.783203" xlink:href="#LiberationSans-69"/>
       <use x="144.482422" xlink:href="#LiberationSans-78"/>
       <use x="216.699219" xlink:href="#LiberationSans-69"/>
       <use x="283.398438" xlink:href="#LiberationSans-82"/>
       <use x="355.615234" xlink:href="#LiberationSans-65"/>
       <use x="422.314453" xlink:href="#LiberationSans-76"/>
       <use x="477.882812" xlink:href="#LiberationSans-32"/>
       <use x="505.666016" xlink:href="#LiberationSans-77"/>
       <use x="588.966797" xlink:href="#LiberationSans-79"/>
       <use x="666.75" xlink:href="#LiberationSans-84"/>
       <use x="727.818359" xlink:href="#LiberationSans-79"/>
       <use x="805.601562" xlink:href="#LiberationSans-82"/>
       <use x="877.818359" xlink:href="#LiberationSans-83"/>
       <use x="944.517578" xlink:href="#LiberationSans-32"/>
       <use x="972.300781" xlink:href="#LiberationSans-70"/>
       <use x="1033.384766" xlink:href="#LiberationSans-73"/>
       <use x="1061.167969" xlink:href="#LiberationSans-78"/>
       <use x="1133.384766" xlink:href="#LiberationSans-65"/>
       <use x="1200.083984" xlink:href="#LiberationSans-78"/>
       <use x="1272.300781" xlink:href="#LiberationSans-67"/>
       <use x="1344.517578" xlink:href="#LiberationSans-73"/>
       <use x="1372.300781" xlink:href="#LiberationSans-65"/>
       <use x="1439" xlink:href="#LiberationSans-76"/>
       <use x="1494.568359" xlink:href="#LiberationSans-32"/>
       <use x="1522.351562" xlink:href="#LiberationSans-67"/>
       <use x="1594.568359" xlink:href="#LiberationSans-79"/>
       <use x="1672.351562" xlink:href="#LiberationSans-77"/>
       <use x="1755.652344" xlink:href="#LiberationSans-80"/>
       <use x="1822.242188" xlink:href="#LiberationSans-65"/>
       <use x="1888.941406" xlink:href="#LiberationSans-78"/>
       <use x="1961.158203" xlink:href="#LiberationSans-89"/>
       <use x="2027.669922" xlink:href="#LiberationSans-44"/>
       <use x="2055.453125" xlink:href="#LiberationSans-32"/>
       <use x="2083.236328" xlink:href="#LiberationSans-73"/>
       <use x="2111.019531" xlink:href="#LiberationSans-78"/>
       <use x="2183.236328" xlink:href="#LiberationSans-67"/>
       <use x="2255.453125" xlink:href="#LiberationSans-46"/>
      </g>
     </g>
    </g>
    <g id="ytick_8">
     <g id="line2d_30"/>
     <g id="line2d_31"/>
     <g id="text_14">
      <!-- WELLS FARGO &amp; COMPANY -->
      <defs>
       <path d="M 73.78125 0 
L 62.640625 0 
L 50.734375 43.703125 
Q 50.203125 45.5625 49.578125 48.09375 
Q 48.96875 50.640625 48.484375 52.9375 
Q 47.90625 55.609375 47.3125 58.40625 
Q 46.6875 55.5625 46.09375 52.875 
Q 45.5625 50.53125 44.96875 48.046875 
Q 44.390625 45.5625 43.84375 43.703125 
L 31.84375 0 
L 20.703125 0 
L 0.4375 68.796875 
L 10.15625 68.796875 
L 22.515625 25.09375 
Q 23.34375 22.015625 24.09375 18.984375 
Q 24.859375 15.96875 25.390625 13.578125 
Q 26.03125 10.75 26.5625 8.203125 
Q 27.296875 11.578125 28.078125 14.84375 
Q 28.421875 16.21875 28.765625 17.71875 
Q 29.109375 19.234375 29.46875 20.703125 
Q 29.828125 22.171875 30.1875 23.515625 
Q 30.5625 24.859375 30.859375 25.984375 
L 42.828125 68.796875 
L 51.765625 68.796875 
L 63.71875 25.984375 
Q 64.015625 24.859375 64.375 23.515625 
Q 64.75 22.171875 65.109375 20.71875 
Q 65.484375 19.28125 65.8125 17.765625 
Q 66.15625 16.265625 66.5 14.890625 
Q 67.28125 11.625 68.015625 8.203125 
Q 68.0625 8.203125 68.453125 9.890625 
Q 68.84375 11.578125 69.421875 14.109375 
Q 70.015625 16.65625 70.71875 19.609375 
Q 71.4375 22.5625 72.171875 25.09375 
L 84.328125 68.796875 
L 94.046875 68.796875 
z
" id="LiberationSans-87"/>
      </defs>
      <g transform="translate(150.7925 131.86858)scale(0.12 -0.12)">
       <use xlink:href="#LiberationSans-87"/>
       <use x="94.384766" xlink:href="#LiberationSans-69"/>
       <use x="161.083984" xlink:href="#LiberationSans-76"/>
       <use x="216.699219" xlink:href="#LiberationSans-76"/>
       <use x="272.314453" xlink:href="#LiberationSans-83"/>
       <use x="339.013672" xlink:href="#LiberationSans-32"/>
       <use x="366.796875" xlink:href="#LiberationSans-70"/>
       <use x="427.802734" xlink:href="#LiberationSans-65"/>
       <use x="494.501953" xlink:href="#LiberationSans-82"/>
       <use x="566.71875" xlink:href="#LiberationSans-71"/>
       <use x="644.501953" xlink:href="#LiberationSans-79"/>
       <use x="722.285156" xlink:href="#LiberationSans-32"/>
       <use x="750.068359" xlink:href="#LiberationSans-38"/>
       <use x="816.767578" xlink:href="#LiberationSans-32"/>
       <use x="844.550781" xlink:href="#LiberationSans-67"/>
       <use x="916.767578" xlink:href="#LiberationSans-79"/>
       <use x="994.550781" xlink:href="#LiberationSans-77"/>
       <use x="1077.851562" xlink:href="#LiberationSans-80"/>
       <use x="1144.441406" xlink:href="#LiberationSans-65"/>
       <use x="1211.140625" xlink:href="#LiberationSans-78"/>
       <use x="1283.357422" xlink:href="#LiberationSans-89"/>
      </g>
     </g>
    </g>
    <g id="ytick_9">
     <g id="line2d_32"/>
     <g id="line2d_33"/>
     <g id="text_15">
      <!-- ALLY FINANCIAL INC. -->
      <g transform="translate(190.120625 99.746761)scale(0.12 -0.12)">
       <use xlink:href="#LiberationSans-65"/>
       <use x="66.699219" xlink:href="#LiberationSans-76"/>
       <use x="122.314453" xlink:href="#LiberationSans-76"/>
       <use x="177.820312" xlink:href="#LiberationSans-89"/>
       <use x="244.503906" xlink:href="#LiberationSans-32"/>
       <use x="272.287109" xlink:href="#LiberationSans-70"/>
       <use x="333.371094" xlink:href="#LiberationSans-73"/>
       <use x="361.154297" xlink:href="#LiberationSans-78"/>
       <use x="433.371094" xlink:href="#LiberationSans-65"/>
       <use x="500.070312" xlink:href="#LiberationSans-78"/>
       <use x="572.287109" xlink:href="#LiberationSans-67"/>
       <use x="644.503906" xlink:href="#LiberationSans-73"/>
       <use x="672.287109" xlink:href="#LiberationSans-65"/>
       <use x="738.986328" xlink:href="#LiberationSans-76"/>
       <use x="794.554688" xlink:href="#LiberationSans-32"/>
       <use x="822.337891" xlink:href="#LiberationSans-73"/>
       <use x="850.121094" xlink:href="#LiberationSans-78"/>
       <use x="922.337891" xlink:href="#LiberationSans-67"/>
       <use x="994.554688" xlink:href="#LiberationSans-46"/>
      </g>
     </g>
    </g>
    <g id="ytick_10">
     <g id="line2d_34"/>
     <g id="line2d_35"/>
     <g id="text_16">
      <!-- SANTANDER CONSUMER USA HOLDINGS INC. -->
      <g transform="translate(44.12 67.624943)scale(0.12 -0.12)">
       <use xlink:href="#LiberationSans-83"/>
       <use x="66.699219" xlink:href="#LiberationSans-65"/>
       <use x="133.398438" xlink:href="#LiberationSans-78"/>
       <use x="205.615234" xlink:href="#LiberationSans-84"/>
       <use x="266.589844" xlink:href="#LiberationSans-65"/>
       <use x="333.289062" xlink:href="#LiberationSans-78"/>
       <use x="405.505859" xlink:href="#LiberationSans-68"/>
       <use x="477.722656" xlink:href="#LiberationSans-69"/>
       <use x="544.421875" xlink:href="#LiberationSans-82"/>
       <use x="616.638672" xlink:href="#LiberationSans-32"/>
       <use x="644.421875" xlink:href="#LiberationSans-67"/>
       <use x="716.638672" xlink:href="#LiberationSans-79"/>
       <use x="794.421875" xlink:href="#LiberationSans-78"/>
       <use x="866.638672" xlink:href="#LiberationSans-83"/>
       <use x="933.337891" xlink:href="#LiberationSans-85"/>
       <use x="1005.554688" xlink:href="#LiberationSans-77"/>
       <use x="1088.855469" xlink:href="#LiberationSans-69"/>
       <use x="1155.554688" xlink:href="#LiberationSans-82"/>
       <use x="1227.771484" xlink:href="#LiberationSans-32"/>
       <use x="1255.554688" xlink:href="#LiberationSans-85"/>
       <use x="1327.771484" xlink:href="#LiberationSans-83"/>
       <use x="1394.470703" xlink:href="#LiberationSans-65"/>
       <use x="1461.091797" xlink:href="#LiberationSans-32"/>
       <use x="1488.875" xlink:href="#LiberationSans-72"/>
       <use x="1561.091797" xlink:href="#LiberationSans-79"/>
       <use x="1638.875" xlink:href="#LiberationSans-76"/>
       <use x="1694.490234" xlink:href="#LiberationSans-68"/>
       <use x="1766.707031" xlink:href="#LiberationSans-73"/>
       <use x="1794.490234" xlink:href="#LiberationSans-78"/>
       <use x="1866.707031" xlink:href="#LiberationSans-71"/>
       <use x="1944.490234" xlink:href="#LiberationSans-83"/>
       <use x="2011.189453" xlink:href="#LiberationSans-32"/>
       <use x="2038.972656" xlink:href="#LiberationSans-73"/>
       <use x="2066.755859" xlink:href="#LiberationSans-78"/>
       <use x="2138.972656" xlink:href="#LiberationSans-67"/>
       <use x="2211.189453" xlink:href="#LiberationSans-46"/>
      </g>
     </g>
    </g>
   </g>
   <g id="patch_3">
    <path clip-path="url(#pfb2a15d8b4)" d="M 316.8 366.466909 
L 357.685358 366.466909 
L 357.685358 340.769455 
L 316.8 340.769455 
z
" style="fill:#0072bd;stroke:#000000;stroke-linejoin:miter;"/>
   </g>
   <g id="patch_4">
    <path clip-path="url(#pfb2a15d8b4)" d="M 316.8 334.345091 
L 360.480937 334.345091 
L 360.480937 308.647636 
L 316.8 308.647636 
z
" style="fill:#0072bd;stroke:#000000;stroke-linejoin:miter;"/>
   </g>
   <g id="patch_5">
    <path clip-path="url(#pfb2a15d8b4)" d="M 316.8 302.223273 
L 367.935817 302.223273 
L 367.935817 276.525818 
L 316.8 276.525818 
z
" style="fill:#0072bd;stroke:#000000;stroke-linejoin:miter;"/>
   </g>
   <g id="patch_6">
    <path clip-path="url(#pfb2a15d8b4)" d="M 316.8 270.101455 
L 376.322558 270.101455 
L 376.322558 244.404 
L 316.8 244.404 
z
" style="fill:#0072bd;stroke:#000000;stroke-linejoin:miter;"/>
   </g>
   <g id="patch_7">
    <path clip-path="url(#pfb2a15d8b4)" d="M 316.8 237.979636 
L 381.913718 237.979636 
L 381.913718 212.282182 
L 316.8 212.282182 
z
" style="fill:#0072bd;stroke:#000000;stroke-linejoin:miter;"/>
   </g>
   <g id="patch_8">
    <path clip-path="url(#pfb2a15d8b4)" d="M 316.8 205.857818 
L 383.89392 205.857818 
L 383.89392 180.160364 
L 316.8 180.160364 
z
" style="fill:#0072bd;stroke:#000000;stroke-linejoin:miter;"/>
   </g>
   <g id="patch_9">
    <path clip-path="url(#pfb2a15d8b4)" d="M 316.8 173.736 
L 396.47403 173.736 
L 396.47403 148.038545 
L 316.8 148.038545 
z
" style="fill:#0072bd;stroke:#000000;stroke-linejoin:miter;"/>
   </g>
   <g id="patch_10">
    <path clip-path="url(#pfb2a15d8b4)" d="M 316.8 141.614182 
L 404.744287 141.614182 
L 404.744287 115.916727 
L 316.8 115.916727 
z
" style="fill:#0072bd;stroke:#000000;stroke-linejoin:miter;"/>
   </g>
   <g id="patch_11">
    <path clip-path="url(#pfb2a15d8b4)" d="M 316.8 109.492364 
L 432.583605 109.492364 
L 432.583605 83.794909 
L 316.8 83.794909 
z
" style="fill:#0072bd;stroke:#000000;stroke-linejoin:miter;"/>
   </g>
   <g id="patch_12">
    <path clip-path="url(#pfb2a15d8b4)" d="M 316.8 77.370545 
L 516.567487 77.370545 
L 516.567487 51.673091 
L 316.8 51.673091 
z
" style="fill:#0072bd;stroke:#000000;stroke-linejoin:miter;"/>
   </g>
   <g id="patch_13">
    <path d="M 316.8 385.74 
L 316.8 32.4 
" style="fill:none;stroke:#000000;stroke-linecap:square;stroke-linejoin:miter;"/>
   </g>
   <g id="patch_14">
    <path d="M 549.765 385.74 
L 549.765 32.4 
" style="fill:none;stroke:#000000;stroke-linecap:square;stroke-linejoin:miter;"/>
   </g>
   <g id="patch_15">
    <path d="M 316.8 385.74 
L 549.765 385.74 
" style="fill:none;stroke:#000000;stroke-linecap:square;stroke-linejoin:miter;"/>
   </g>
   <g id="patch_16">
    <path d="M 316.8 32.4 
L 549.765 32.4 
" style="fill:none;stroke:#000000;stroke-linecap:square;stroke-linejoin:miter;"/>
   </g>
  </g>
  <g id="text_17">
   <!-- Vehicle loan or lease -->
   <defs>
    <path d="M 40.71875 0 
L 26.125 0 
L 0.6875 68.796875 
L 15.71875 68.796875 
L 29.890625 24.609375 
Q 31.203125 20.3125 33.5 11.625 
L 34.515625 15.828125 
L 37.015625 24.609375 
L 51.125 68.796875 
L 66.015625 68.796875 
z
" id="LiberationSans-Bold-86"/>
    <path d="M 28.609375 -0.984375 
Q 16.703125 -0.984375 10.296875 6.078125 
Q 3.90625 13.140625 3.90625 26.65625 
Q 3.90625 39.75 10.390625 46.78125 
Q 16.890625 53.8125 28.8125 53.8125 
Q 40.1875 53.8125 46.1875 46.265625 
Q 52.203125 38.71875 52.203125 24.171875 
L 52.203125 23.78125 
L 18.3125 23.78125 
Q 18.3125 16.0625 21.171875 12.125 
Q 24.03125 8.203125 29.296875 8.203125 
Q 36.578125 8.203125 38.484375 14.5 
L 51.421875 13.375 
Q 45.796875 -0.984375 28.609375 -0.984375 
z
M 28.609375 45.171875 
Q 23.78125 45.171875 21.171875 41.796875 
Q 18.5625 38.421875 18.40625 32.375 
L 38.921875 32.375 
Q 38.53125 38.765625 35.84375 41.96875 
Q 33.15625 45.171875 28.609375 45.171875 
z
" id="LiberationSans-Bold-101"/>
    <path d="M 20.515625 42.28125 
Q 23.296875 48.34375 27.484375 51.078125 
Q 31.6875 53.8125 37.5 53.8125 
Q 45.90625 53.8125 50.390625 48.625 
Q 54.890625 43.453125 54.890625 33.5 
L 54.890625 0 
L 41.21875 0 
L 41.21875 29.59375 
Q 41.21875 43.5 31.78125 43.5 
Q 26.8125 43.5 23.75 39.234375 
Q 20.703125 34.96875 20.703125 28.265625 
L 20.703125 0 
L 6.984375 0 
L 6.984375 72.46875 
L 20.703125 72.46875 
L 20.703125 52.6875 
Q 20.703125 47.359375 20.3125 42.28125 
z
" id="LiberationSans-Bold-104"/>
    <path d="M 6.984375 62.359375 
L 6.984375 72.46875 
L 20.703125 72.46875 
L 20.703125 62.359375 
z
M 6.984375 0 
L 6.984375 52.828125 
L 20.703125 52.828125 
L 20.703125 0 
z
" id="LiberationSans-Bold-105"/>
    <path d="M 29 -0.984375 
Q 17 -0.984375 10.453125 6.171875 
Q 3.90625 13.328125 3.90625 26.125 
Q 3.90625 39.203125 10.5 46.5 
Q 17.09375 53.8125 29.203125 53.8125 
Q 38.53125 53.8125 44.625 49.125 
Q 50.734375 44.4375 52.296875 36.1875 
L 38.484375 35.5 
Q 37.890625 39.546875 35.546875 41.96875 
Q 33.203125 44.390625 28.90625 44.390625 
Q 18.3125 44.390625 18.3125 26.65625 
Q 18.3125 8.40625 29.109375 8.40625 
Q 33.015625 8.40625 35.640625 10.859375 
Q 38.28125 13.328125 38.921875 18.21875 
L 52.6875 17.578125 
Q 51.953125 12.15625 48.796875 7.90625 
Q 45.65625 3.65625 40.53125 1.328125 
Q 35.40625 -0.984375 29 -0.984375 
z
" id="LiberationSans-Bold-99"/>
    <path d="M 6.984375 0 
L 6.984375 72.46875 
L 20.703125 72.46875 
L 20.703125 0 
z
" id="LiberationSans-Bold-108"/>
    <path id="LiberationSans-Bold-32"/>
    <path d="M 57.171875 26.46875 
Q 57.171875 13.625 50.046875 6.3125 
Q 42.921875 -0.984375 30.328125 -0.984375 
Q 17.96875 -0.984375 10.9375 6.34375 
Q 3.90625 13.671875 3.90625 26.46875 
Q 3.90625 39.203125 10.9375 46.5 
Q 17.96875 53.8125 30.609375 53.8125 
Q 43.5625 53.8125 50.359375 46.75 
Q 57.171875 39.703125 57.171875 26.46875 
z
M 42.828125 26.46875 
Q 42.828125 35.890625 39.75 40.140625 
Q 36.671875 44.390625 30.8125 44.390625 
Q 18.3125 44.390625 18.3125 26.46875 
Q 18.3125 17.625 21.359375 13.015625 
Q 24.421875 8.40625 30.171875 8.40625 
Q 42.828125 8.40625 42.828125 26.46875 
z
" id="LiberationSans-Bold-111"/>
    <path d="M 19.1875 -0.984375 
Q 11.53125 -0.984375 7.234375 3.1875 
Q 2.9375 7.375 2.9375 14.9375 
Q 2.9375 23.140625 8.28125 27.4375 
Q 13.625 31.734375 23.78125 31.84375 
L 35.15625 32.03125 
L 35.15625 34.71875 
Q 35.15625 39.890625 33.34375 42.40625 
Q 31.546875 44.921875 27.4375 44.921875 
Q 23.640625 44.921875 21.84375 43.1875 
Q 20.0625 41.453125 19.625 37.453125 
L 5.328125 38.140625 
Q 6.640625 45.84375 12.375 49.828125 
Q 18.109375 53.8125 28.03125 53.8125 
Q 38.03125 53.8125 43.453125 48.875 
Q 48.875 43.953125 48.875 34.859375 
L 48.875 15.625 
Q 48.875 11.1875 49.875 9.5 
Q 50.875 7.8125 53.21875 7.8125 
Q 54.78125 7.8125 56.25 8.109375 
L 56.25 0.6875 
Q 55.03125 0.390625 54.046875 0.140625 
Q 53.078125 -0.09375 52.09375 -0.234375 
Q 51.125 -0.390625 50.015625 -0.484375 
Q 48.921875 -0.59375 47.46875 -0.59375 
Q 42.28125 -0.59375 39.8125 1.953125 
Q 37.359375 4.5 36.859375 9.421875 
L 36.578125 9.421875 
Q 30.8125 -0.984375 19.1875 -0.984375 
z
M 35.15625 24.46875 
L 28.125 24.359375 
Q 23.34375 24.171875 21.34375 23.3125 
Q 19.34375 22.46875 18.28125 20.703125 
Q 17.234375 18.953125 17.234375 16.015625 
Q 17.234375 12.25 18.96875 10.421875 
Q 20.703125 8.59375 23.578125 8.59375 
Q 26.8125 8.59375 29.46875 10.34375 
Q 32.125 12.109375 33.640625 15.203125 
Q 35.15625 18.3125 35.15625 21.78125 
z
" id="LiberationSans-Bold-97"/>
    <path d="M 41.21875 0 
L 41.21875 29.640625 
Q 41.21875 43.5625 31.78125 43.5625 
Q 26.8125 43.5625 23.75 39.28125 
Q 20.703125 35.015625 20.703125 28.328125 
L 20.703125 0 
L 6.984375 0 
L 6.984375 41.015625 
Q 6.984375 45.265625 6.859375 47.96875 
Q 6.734375 50.6875 6.59375 52.828125 
L 19.671875 52.828125 
Q 19.828125 51.90625 20.0625 47.875 
Q 20.3125 43.84375 20.3125 42.328125 
L 20.515625 42.328125 
Q 23.296875 48.390625 27.484375 51.125 
Q 31.6875 53.859375 37.5 53.859375 
Q 45.90625 53.859375 50.390625 48.671875 
Q 54.890625 43.5 54.890625 33.546875 
L 54.890625 0 
z
" id="LiberationSans-Bold-110"/>
    <path d="M 6.984375 0 
L 6.984375 40.4375 
Q 6.984375 44.78125 6.859375 47.6875 
Q 6.734375 50.59375 6.59375 52.828125 
L 19.671875 52.828125 
Q 19.828125 51.953125 20.0625 47.484375 
Q 20.3125 43.015625 20.3125 41.546875 
L 20.515625 41.546875 
Q 22.515625 47.125 24.078125 49.390625 
Q 25.640625 51.65625 27.78125 52.75 
Q 29.9375 53.859375 33.15625 53.859375 
Q 35.796875 53.859375 37.40625 53.125 
L 37.40625 41.65625 
Q 34.078125 42.390625 31.546875 42.390625 
Q 26.421875 42.390625 23.5625 38.234375 
Q 20.703125 34.078125 20.703125 25.921875 
L 20.703125 0 
z
" id="LiberationSans-Bold-114"/>
    <path d="M 51.515625 15.4375 
Q 51.515625 7.765625 45.234375 3.390625 
Q 38.96875 -0.984375 27.875 -0.984375 
Q 17 -0.984375 11.203125 2.453125 
Q 5.421875 5.90625 3.515625 13.1875 
L 15.578125 14.984375 
Q 16.609375 11.234375 19.109375 9.671875 
Q 21.625 8.109375 27.875 8.109375 
Q 33.640625 8.109375 36.28125 9.5625 
Q 38.921875 11.03125 38.921875 14.15625 
Q 38.921875 16.703125 36.796875 18.1875 
Q 34.671875 19.671875 29.59375 20.703125 
Q 17.96875 23 13.90625 24.96875 
Q 9.859375 26.953125 7.734375 30.09375 
Q 5.609375 33.25 5.609375 37.84375 
Q 5.609375 45.40625 11.4375 49.625 
Q 17.28125 53.859375 27.984375 53.859375 
Q 37.40625 53.859375 43.140625 50.1875 
Q 48.875 46.53125 50.296875 39.59375 
L 38.140625 38.328125 
Q 37.546875 41.546875 35.25 43.140625 
Q 32.953125 44.734375 27.984375 44.734375 
Q 23.09375 44.734375 20.65625 43.484375 
Q 18.21875 42.234375 18.21875 39.3125 
Q 18.21875 37.015625 20.09375 35.671875 
Q 21.96875 34.328125 26.421875 33.453125 
Q 32.625 32.171875 37.421875 30.828125 
Q 42.234375 29.5 45.140625 27.640625 
Q 48.046875 25.78125 49.78125 22.875 
Q 51.515625 19.96875 51.515625 15.4375 
z
" id="LiberationSans-Bold-115"/>
   </defs>
   <g transform="translate(208.86375 22.395)scale(0.16 -0.16)">
    <use xlink:href="#LiberationSans-Bold-86"/>
    <use x="66.621094" xlink:href="#LiberationSans-Bold-101"/>
    <use x="122.236328" xlink:href="#LiberationSans-Bold-104"/>
    <use x="183.320312" xlink:href="#LiberationSans-Bold-105"/>
    <use x="211.103516" xlink:href="#LiberationSans-Bold-99"/>
    <use x="266.71875" xlink:href="#LiberationSans-Bold-108"/>
    <use x="294.501953" xlink:href="#LiberationSans-Bold-101"/>
    <use x="350.117188" xlink:href="#LiberationSans-Bold-32"/>
    <use x="377.900391" xlink:href="#LiberationSans-Bold-108"/>
    <use x="405.683594" xlink:href="#LiberationSans-Bold-111"/>
    <use x="466.767578" xlink:href="#LiberationSans-Bold-97"/>
    <use x="522.382812" xlink:href="#LiberationSans-Bold-110"/>
    <use x="583.466797" xlink:href="#LiberationSans-Bold-32"/>
    <use x="611.25" xlink:href="#LiberationSans-Bold-111"/>
    <use x="672.333984" xlink:href="#LiberationSans-Bold-114"/>
    <use x="711.25" xlink:href="#LiberationSans-Bold-32"/>
    <use x="739.033203" xlink:href="#LiberationSans-Bold-108"/>
    <use x="766.816406" xlink:href="#LiberationSans-Bold-101"/>
    <use x="822.431641" xlink:href="#LiberationSans-Bold-97"/>
    <use x="878.046875" xlink:href="#LiberationSans-Bold-115"/>
    <use x="933.662109" xlink:href="#LiberationSans-Bold-101"/>
   </g>
  </g>
 </g>
 <defs>
  <clipPath id="pfb2a15d8b4">
   <rect height="353.34" width="232.965" x="316.8" y="32.4"/>
  </clipPath>
 </defs>
</svg>
